<svg id="svg" version="1.1" xmlns="http://www.w3.org/2000/svg" xmlns:xlink="http://www.w3.org/1999/xlink" width="400" height="375.75757575757575" viewBox="0, 0, 400,375.75757575757575"><g id="svgg"><path id="path0" d="M0.052 88.252 C 0.082 140.204,0.236 174.957,0.425 172.744 C 8.268 81.020,84.092 8.728,181.015 0.566 C 185.737 0.169,171.479 0.084,93.327 0.046 L 0.000 0.000 0.052 88.252 M216.729 0.417 C 315.250 8.637,390.620 79.107,399.430 171.241 C 399.817 175.281,399.907 160.872,399.949 88.064 L 400.000 0.000 306.485 0.052 C 253.333 0.081,214.593 0.239,216.729 0.417 M249.404 90.714 C 242.132 93.497,238.251 101.076,240.369 108.360 C 240.704 109.512,240.977 110.548,240.977 110.664 C 240.977 110.878,238.132 113.369,224.248 125.309 C 219.906 129.044,215.440 132.923,214.323 133.931 C 213.206 134.938,211.740 136.184,211.064 136.700 L 209.835 137.637 208.019 136.720 C 197.970 131.642,184.643 140.414,186.709 150.746 C 186.875 151.572,186.747 151.904,186.137 152.231 C 185.405 152.622,172.291 158.109,163.062 161.885 L 159.018 163.539 156.987 161.885 C 153.523 159.063,148.687 157.764,144.771 158.604 C 127.801 162.244,130.065 187.343,147.368 187.396 C 155.908 187.422,162.027 181.244,162.031 172.592 L 162.033 169.737 163.629 169.092 C 164.507 168.737,170.626 166.241,177.227 163.546 C 191.128 157.871,189.520 158.247,191.621 160.184 C 202.257 169.987,219.048 159.369,215.227 145.255 C 214.850 143.863,214.707 142.675,214.895 142.504 C 215.077 142.339,219.539 138.513,224.812 134.002 C 233.725 126.377,242.077 119.136,244.413 117.009 L 245.404 116.106 247.796 117.357 C 254.513 120.873,264.042 117.843,267.426 111.115 C 273.357 99.324,261.622 86.040,249.404 90.714 M257.625 96.748 C 265.914 100.221,263.483 112.817,254.531 112.774 C 245.374 112.730,243.063 101.160,251.316 96.672 C 252.373 96.097,256.182 96.143,257.625 96.748 M237.970 178.571 L 237.970 225.188 255.263 225.188 L 272.556 225.188 272.556 178.571 L 272.556 131.955 255.263 131.955 L 237.970 131.955 237.970 178.571 M203.864 141.752 C 207.645 142.802,210.205 147.205,209.350 151.190 C 207.621 159.252,196.171 160.048,193.436 152.297 C 191.112 145.711,196.931 139.827,203.864 141.752 M150.670 165.246 C 156.208 167.559,157.524 174.768,153.184 179.012 C 147.161 184.900,136.795 178.163,139.634 170.206 C 141.248 165.684,146.292 163.417,150.670 165.246 M184.211 201.132 L 184.211 225.195 201.598 225.098 L 218.985 225.000 219.082 201.034 L 219.178 177.068 201.695 177.068 L 184.211 177.068 184.211 201.132 M91.831 184.475 C 90.822 184.670,88.479 187.309,88.292 188.461 C 88.218 188.915,88.242 210.210,88.346 235.784 L 88.534 282.282 89.644 283.440 C 91.294 285.163,92.936 285.444,100.283 285.265 C 107.348 285.093,107.764 284.972,109.563 282.562 C 110.335 281.528,110.339 281.323,110.438 235.214 L 110.538 188.904 109.686 187.215 C 108.296 184.458,107.410 184.203,99.436 184.262 C 95.714 184.290,92.292 184.386,91.831 184.475 M293.543 185.140 C 290.789 187.012,290.945 183.861,291.061 235.405 C 291.165 281.318,291.169 281.529,291.941 282.562 C 293.753 284.990,294.138 285.099,301.412 285.259 C 309.166 285.429,310.400 285.165,312.182 282.954 L 313.346 281.509 313.235 234.663 C 313.110 182.023,313.352 186.230,310.370 184.814 C 308.015 183.697,295.305 183.943,293.543 185.140 M399.469 202.726 C 394.214 279.790,336.262 347.056,256.391 368.800 C 244.053 372.159,231.762 374.203,215.977 375.522 C 213.837 375.701,252.654 375.859,306.109 375.888 L 400.000 375.940 400.000 287.406 C 400.000 238.712,399.940 198.872,399.866 198.872 C 399.792 198.872,399.613 200.606,399.469 202.726 M0.063 287.876 L 0.000 375.940 94.079 375.895 C 175.478 375.856,187.347 375.782,182.143 375.348 C 135.279 371.442,94.696 354.156,60.714 323.628 C 25.031 291.571,4.502 250.038,0.257 201.316 C 0.185 200.489,0.098 239.441,0.063 287.876 M130.451 212.782 L 130.451 225.195 147.838 225.098 L 165.226 225.000 165.226 212.782 L 165.226 200.564 147.838 200.466 L 130.451 200.368 130.451 212.782 M322.778 204.011 C 318.627 204.717,318.797 203.404,318.798 234.850 C 318.800 268.557,318.020 265.791,327.519 265.788 C 332.941 265.787,334.208 265.411,335.515 263.415 C 336.455 261.981,336.522 207.670,335.586 206.241 C 334.236 204.181,328.081 203.109,322.778 204.011 M66.680 205.478 C 65.712 206.504,65.414 207.146,65.418 208.203 C 65.420 208.964,65.378 221.458,65.324 235.968 C 65.226 262.136,65.232 262.358,66.004 263.412 C 68.551 266.885,79.568 266.886,82.116 263.412 C 82.966 262.254,83.526 224.984,82.889 212.043 L 82.621 206.605 81.385 205.370 L 80.150 204.135 74.048 204.135 L 67.946 204.135 66.680 205.478 M54.323 230.125 C 49.611 232.474,51.830 239.474,57.287 239.474 L 59.774 239.474 59.774 234.586 L 59.774 229.699 57.425 229.725 C 56.133 229.739,54.737 229.919,54.323 230.125 M341.729 234.586 L 341.729 239.474 344.267 239.462 C 347.876 239.445,349.619 237.857,349.619 234.586 C 349.619 231.332,347.802 229.734,344.079 229.713 L 341.729 229.699 341.729 234.586 M115.789 234.962 L 115.789 239.474 200.752 239.474 L 285.714 239.474 285.714 234.962 L 285.714 230.451 200.752 230.451 L 115.789 230.451 115.789 234.962 M130.451 265.414 L 130.451 286.090 147.932 286.090 L 165.414 286.090 165.414 265.414 L 165.414 244.737 147.932 244.737 L 130.451 244.737 130.451 265.414 M184.211 265.414 L 184.211 286.090 201.692 286.090 L 219.173 286.090 219.173 265.414 L 219.173 244.737 201.692 244.737 L 184.211 244.737 184.211 265.414 M237.970 265.414 L 237.970 286.090 255.263 286.090 L 272.556 286.090 272.556 265.414 L 272.556 244.737 255.263 244.737 L 237.970 244.737 237.970 265.414 " stroke="none" fill="#fbfbfb" fill-rule="evenodd"></path><path id="path1" d="M186.278 0.602 C 172.690 1.545,161.779 3.178,150.940 5.892 C 148.872 6.409,146.504 6.974,145.677 7.148 C 144.850 7.321,143.412 7.706,142.481 8.005 C 141.551 8.303,139.521 8.919,137.970 9.373 C 133.579 10.659,130.297 11.770,129.906 12.103 C 129.710 12.269,129.271 12.406,128.930 12.406 C 128.252 12.406,117.692 16.638,112.030 19.179 C 102.747 23.344,90.936 29.954,83.892 34.926 C 81.959 36.290,79.478 38.023,78.379 38.778 C 75.164 40.984,69.884 45.064,67.934 46.847 C 66.942 47.754,65.983 48.496,65.803 48.496 C 65.623 48.496,65.420 48.638,65.351 48.812 C 65.282 48.986,63.703 50.436,61.842 52.034 C 52.407 60.136,35.425 79.297,32.325 85.338 C 32.059 85.855,31.727 86.363,31.585 86.466 C 31.223 86.730,26.692 93.530,26.692 93.809 C 26.692 93.935,26.184 94.775,25.564 95.677 C 24.944 96.578,24.436 97.405,24.436 97.514 C 24.436 97.622,23.904 98.607,23.253 99.702 C 21.445 102.741,16.808 112.143,15.038 116.353 C 14.169 118.421,13.242 120.620,12.977 121.241 C 11.901 123.761,10.145 128.559,9.263 131.391 C 6.901 138.972,4.887 146.255,4.887 147.215 C 4.887 147.580,4.720 148.398,4.515 149.033 C 3.273 152.891,1.211 166.643,0.931 172.932 C 0.834 175.103,0.558 179.502,0.317 182.707 C -0.242 190.144,0.991 209.850,2.283 214.124 C 2.475 214.759,2.633 215.774,2.634 216.380 C 2.636 216.986,3.067 219.596,3.594 222.180 C 4.120 224.765,4.687 227.556,4.853 228.383 C 5.709 232.646,8.118 241.038,9.989 246.278 C 10.698 248.263,11.278 250.014,11.278 250.169 C 11.278 250.324,11.510 250.983,11.794 251.635 C 12.078 252.286,12.945 254.427,13.722 256.391 C 16.570 263.595,26.847 283.248,28.810 285.247 C 29.065 285.506,29.381 286.056,29.512 286.468 C 29.643 286.881,29.908 287.218,30.101 287.218 C 30.293 287.218,30.451 287.466,30.451 287.769 C 30.451 288.072,30.770 288.490,31.160 288.699 C 31.550 288.907,31.973 289.493,32.100 290.001 C 32.228 290.509,32.546 291.148,32.808 291.421 C 33.254 291.885,35.702 295.137,37.406 297.529 C 38.302 298.786,40.592 301.614,40.930 301.880 C 41.061 301.983,42.177 303.336,43.410 304.887 C 48.482 311.267,64.756 327.444,66.101 327.444 C 66.329 327.444,66.699 327.787,66.923 328.206 C 67.147 328.625,67.496 328.867,67.697 328.742 C 67.899 328.617,68.017 328.670,67.960 328.859 C 67.904 329.048,69.467 330.456,71.436 331.989 C 76.678 336.070,77.497 336.661,78.925 337.397 C 79.636 337.763,80.482 338.366,80.805 338.737 C 83.305 341.609,104.994 353.966,114.098 357.704 C 115.545 358.299,117.747 359.250,118.991 359.818 C 120.234 360.386,122.095 361.137,123.126 361.485 C 124.157 361.834,125.677 362.417,126.504 362.780 C 127.951 363.416,135.595 365.930,139.098 366.922 C 140.028 367.186,141.551 367.644,142.481 367.940 C 143.412 368.235,144.850 368.621,145.677 368.797 C 146.504 368.974,148.226 369.379,149.504 369.699 C 159.000 372.074,170.650 373.894,182.143 374.797 C 185.038 375.025,189.378 375.375,191.788 375.575 C 197.338 376.037,202.621 376.038,208.206 375.579 C 210.619 375.381,215.132 375.025,218.233 374.789 C 228.200 374.030,239.893 372.266,248.120 370.280 C 250.705 369.656,253.496 368.996,254.323 368.812 C 255.150 368.628,256.588 368.235,257.519 367.940 C 258.449 367.644,259.972 367.181,260.902 366.912 C 267.297 365.062,277.425 361.448,281.495 359.565 C 282.586 359.060,283.564 358.647,283.668 358.647 C 283.880 358.647,288.080 356.714,292.857 354.417 C 295.927 352.942,303.649 348.748,306.391 347.066 C 307.115 346.623,308.383 345.894,309.211 345.446 C 311.266 344.334,318.435 339.555,319.361 338.679 C 319.774 338.288,321.383 337.138,322.935 336.123 C 324.488 335.108,326.268 333.797,326.891 333.210 C 327.514 332.623,328.752 331.646,329.642 331.038 C 330.531 330.431,331.473 329.628,331.735 329.255 C 331.996 328.882,332.310 328.676,332.432 328.798 C 332.555 328.921,332.876 328.666,333.147 328.232 C 333.418 327.798,333.769 327.444,333.928 327.444 C 334.308 327.444,335.802 326.135,340.371 321.805 C 348.011 314.561,353.300 308.990,357.331 303.940 C 357.951 303.163,358.712 302.267,359.023 301.948 C 360.746 300.180,368.045 290.260,368.045 289.685 C 368.045 289.461,368.383 289.067,368.797 288.809 C 369.211 288.551,369.549 288.154,369.549 287.927 C 369.549 287.700,370.056 286.873,370.677 286.090 C 371.297 285.307,371.805 284.552,371.805 284.412 C 371.805 284.272,372.312 283.420,372.932 282.519 C 373.553 281.617,374.060 280.800,374.060 280.704 C 374.060 280.607,374.765 279.369,375.627 277.952 C 377.076 275.571,383.835 262.334,383.835 261.878 C 383.835 261.767,384.243 260.783,384.741 259.692 C 386.319 256.238,388.753 249.946,390.017 246.053 C 392.430 238.625,392.857 237.192,392.857 236.533 C 392.857 236.166,392.996 235.704,393.165 235.508 C 393.334 235.311,393.852 233.543,394.316 231.579 C 394.780 229.615,395.315 227.415,395.504 226.692 C 396.283 223.717,397.401 217.171,397.944 212.406 C 398.262 209.615,398.604 207.060,398.705 206.729 C 398.805 206.397,398.958 203.743,399.044 200.831 C 399.131 197.918,399.404 194.506,399.651 193.247 C 400.746 187.683,398.989 166.305,396.376 153.383 C 394.811 145.645,394.749 145.366,394.218 143.609 C 393.937 142.679,393.492 140.987,393.229 139.850 C 391.385 131.867,384.874 115.209,379.785 105.451 C 375.606 97.439,369.181 86.842,368.501 86.842 C 368.341 86.842,368.032 86.377,367.814 85.808 C 367.046 83.804,358.235 72.530,352.822 66.624 C 347.951 61.309,334.662 48.496,334.022 48.496 C 333.944 48.496,333.321 47.977,332.636 47.342 C 330.618 45.470,321.191 38.440,320.335 38.169 C 319.903 38.032,319.549 37.761,319.549 37.568 C 319.549 37.266,309.635 30.451,309.196 30.451 C 309.109 30.451,308.129 29.870,307.020 29.161 C 304.797 27.739,300.508 25.425,294.143 22.214 C 289.451 19.846,288.836 19.557,285.150 17.981 C 283.703 17.362,281.842 16.552,281.015 16.180 C 276.085 13.965,263.033 9.398,261.633 9.398 C 261.256 9.398,260.842 9.229,260.714 9.023 C 260.586 8.816,259.994 8.647,259.398 8.647 C 258.803 8.647,258.228 8.506,258.122 8.335 C 258.016 8.163,256.949 7.807,255.751 7.543 C 254.552 7.279,253.148 6.925,252.632 6.757 C 251.029 6.237,241.725 4.226,237.970 3.588 C 236.006 3.254,233.553 2.820,232.519 2.623 C 221.571 0.537,200.494 -0.384,186.278 0.602 M259.111 90.054 C 265.479 91.855,270.687 99.845,269.553 106.075 C 269.084 108.646,268.351 111.360,267.994 111.842 C 262.439 119.353,254.160 121.606,246.919 117.575 L 245.531 116.802 241.709 120.149 C 239.607 121.990,236.341 124.817,234.451 126.431 C 232.561 128.045,230.085 130.172,228.947 131.158 C 227.810 132.143,224.511 134.958,221.617 137.413 C 214.591 143.372,215.198 142.633,215.722 144.595 C 216.288 146.710,216.297 152.650,215.736 154.024 C 213.798 158.773,212.417 160.394,208.459 162.572 C 202.796 165.686,196.168 164.990,191.431 160.783 L 189.523 159.088 184.141 161.337 C 181.181 162.573,177.744 163.979,176.504 164.461 C 174.579 165.209,166.687 168.365,163.474 169.671 C 162.502 170.067,162.474 170.166,162.459 173.350 C 162.443 176.695,161.907 178.348,159.606 182.143 C 154.502 190.562,138.748 189.221,134.290 179.989 C 126.899 164.680,144.223 150.825,157.394 161.511 C 159.225 162.996,159.291 163.005,161.376 162.058 C 164.171 160.789,172.924 157.125,179.135 154.624 C 182.444 153.292,185.339 152.120,185.569 152.020 C 185.810 151.916,186.069 150.423,186.178 148.517 C 186.520 142.517,189.788 138.009,195.475 135.695 C 199.638 134.001,204.466 134.227,208.340 136.297 C 209.719 137.034,210.168 137.132,210.408 136.751 C 210.576 136.483,211.983 135.170,213.534 133.833 C 215.085 132.497,217.211 130.639,218.260 129.705 C 221.405 126.905,222.626 125.843,225.188 123.680 C 226.532 122.545,227.857 121.404,228.132 121.143 C 228.407 120.883,230.521 119.076,232.831 117.127 C 235.140 115.179,237.770 112.897,238.674 112.057 L 240.318 110.529 239.708 108.101 C 236.781 96.449,247.258 86.704,259.111 90.054 M251.222 97.177 C 250.550 97.469,250.000 97.858,250.000 98.042 C 250.000 98.225,249.618 98.549,249.152 98.762 C 247.087 99.703,245.972 104.498,247.158 107.335 C 250.970 116.459,265.347 111.012,261.786 101.793 C 260.168 97.605,255.216 95.441,251.222 97.177 M273.229 177.068 C 273.289 201.983,273.236 223.089,273.112 223.970 L 272.885 225.571 255.146 225.474 L 237.406 225.376 237.311 178.654 C 237.217 132.704,237.227 131.927,237.945 131.661 C 238.346 131.513,246.425 131.476,255.897 131.579 L 273.120 131.767 273.229 177.068 M198.550 142.000 C 197.021 142.290,194.192 145.453,193.618 147.516 C 192.043 153.170,197.732 158.766,203.203 156.945 C 213.568 153.496,209.351 139.949,198.550 142.000 M145.022 165.573 C 137.836 168.137,137.842 177.015,145.033 180.233 C 149.669 182.307,155.263 178.289,155.263 172.885 C 155.263 167.642,149.918 163.825,145.022 165.573 M219.506 176.828 C 219.814 177.199,219.904 183.929,219.834 201.358 L 219.737 225.376 201.764 225.376 L 183.792 225.376 183.824 201.169 C 183.841 187.855,183.945 176.817,184.055 176.639 C 184.418 176.051,219.014 176.235,219.506 176.828 M107.989 184.483 C 108.764 184.810,109.398 185.208,109.398 185.369 C 109.398 185.529,109.695 185.957,110.056 186.318 C 110.884 187.146,111.312 279.494,110.500 281.955 C 109.490 285.014,107.429 285.697,99.043 285.748 C 91.419 285.794,90.286 285.514,88.753 283.200 L 87.594 281.450 87.594 234.879 C 87.594 183.902,87.434 187.440,89.839 185.150 L 91.024 184.023 97.110 183.827 C 104.371 183.594,106.125 183.699,107.989 184.483 M311.631 185.037 C 312.368 185.673,313.174 186.635,313.423 187.175 C 314.134 188.718,314.106 280.390,313.394 282.061 C 312.094 285.113,310.358 285.677,302.108 285.732 C 294.565 285.782,293.535 285.515,291.753 283.055 L 290.602 281.466 290.604 234.812 C 290.606 183.930,290.474 187.033,292.716 185.207 C 294.458 183.787,295.489 183.643,303.015 183.764 L 310.293 183.882 311.631 185.037 M166.077 212.569 C 166.154 222.223,166.071 225.016,165.701 225.251 C 165.099 225.632,130.160 225.663,130.003 225.282 C 129.939 225.127,129.934 219.373,129.991 212.496 L 130.095 199.993 148.036 200.090 L 165.977 200.188 166.077 212.569 M81.855 204.987 L 83.271 206.403 83.372 234.121 C 83.482 264.183,83.554 263.088,81.332 265.039 L 80.049 266.165 74.141 266.163 C 63.743 266.159,64.613 269.094,64.744 234.455 L 64.850 206.560 65.726 205.442 C 67.116 203.666,68.349 203.398,74.712 203.489 L 80.440 203.571 81.855 204.987 M335.300 204.844 C 336.910 206.648,336.893 206.277,336.767 236.105 L 336.654 263.000 335.714 264.172 C 334.249 265.997,333.534 266.165,327.251 266.165 L 321.455 266.165 320.192 265.057 C 317.964 263.100,317.999 263.633,318.121 233.956 C 318.232 207.192,318.244 206.807,319.012 205.760 C 320.582 203.620,321.742 203.331,328.266 203.457 L 334.164 203.571 335.300 204.844 M59.557 229.312 L 60.517 229.677 60.351 234.621 C 60.156 240.449,60.425 240.016,57.059 239.920 C 51.761 239.768,49.769 235.224,52.937 230.520 C 53.752 229.311,57.673 228.596,59.557 229.312 M347.269 229.579 C 350.411 231.070,351.039 235.978,348.422 238.595 C 346.939 240.078,342.205 240.907,341.505 239.806 C 341.039 239.074,341.073 229.363,341.541 229.166 C 342.523 228.751,346.063 229.006,347.269 229.579 M285.970 230.131 C 286.529 230.596,286.685 238.546,286.152 239.387 C 285.850 239.862,115.955 240.141,115.481 239.667 C 115.248 239.433,115.397 230.406,115.640 230.012 C 115.936 229.534,285.392 229.652,285.970 230.131 M165.663 244.412 C 166.287 244.930,166.419 285.889,165.798 286.273 C 165.293 286.585,130.955 286.777,130.459 286.471 C 130.022 286.201,129.723 245.231,130.153 244.538 C 130.502 243.975,164.989 243.852,165.663 244.412 M219.155 244.167 C 220.273 244.522,220.382 285.859,219.267 286.359 C 218.905 286.521,210.788 286.570,201.228 286.466 L 183.848 286.278 183.616 265.458 C 183.462 251.564,183.512 244.561,183.766 244.406 C 184.284 244.089,218.188 243.860,219.155 244.167 M272.909 244.693 C 273.310 245.443,273.306 285.842,272.904 286.244 C 272.525 286.622,237.928 286.574,237.548 286.194 C 237.017 285.664,237.113 245.129,237.646 244.486 C 238.407 243.569,272.414 243.768,272.909 244.693 " stroke="none" fill="#93c36f" fill-rule="evenodd"></path><path id="path2" d="M189.944 0.259 C 190.305 0.354,190.898 0.354,191.259 0.259 C 191.621 0.165,191.325 0.087,190.602 0.087 C 189.878 0.087,189.582 0.165,189.944 0.259 M208.177 0.265 C 208.642 0.355,209.403 0.355,209.868 0.265 C 210.334 0.176,209.953 0.102,209.023 0.102 C 208.092 0.102,207.711 0.176,208.177 0.265 M58.811 54.229 L 57.707 55.451 58.929 54.347 C 60.067 53.318,60.323 53.008,60.033 53.008 C 59.968 53.008,59.418 53.557,58.811 54.229 M343.045 56.391 C 344.481 57.838,345.741 59.023,345.844 59.023 C 345.948 59.023,344.857 57.838,343.421 56.391 C 341.985 54.944,340.725 53.759,340.622 53.759 C 340.518 53.759,341.609 54.944,343.045 56.391 M348.872 62.218 C 350.204 63.562,351.379 64.662,351.482 64.662 C 351.585 64.662,350.580 63.562,349.248 62.218 C 347.916 60.874,346.742 59.774,346.638 59.774 C 346.535 59.774,347.540 60.874,348.872 62.218 M264.662 93.797 C 265.363 94.521,266.022 95.113,266.125 95.113 C 266.228 95.113,265.739 94.521,265.038 93.797 C 264.336 93.073,263.678 92.481,263.574 92.481 C 263.471 92.481,263.960 93.073,264.662 93.797 M269.289 104.323 C 269.292 105.564,269.362 106.026,269.445 105.350 C 269.529 104.675,269.527 103.660,269.442 103.095 C 269.356 102.530,269.287 103.083,269.289 104.323 M262.493 104.511 C 262.493 105.235,262.571 105.531,262.665 105.169 C 262.760 104.807,262.760 104.215,262.665 103.853 C 262.571 103.492,262.493 103.788,262.493 104.511 M254.981 131.838 C 255.343 131.933,255.935 131.933,256.297 131.838 C 256.659 131.744,256.363 131.666,255.639 131.666 C 254.915 131.666,254.619 131.744,254.981 131.838 M263.252 131.858 C 264.854 131.929,267.477 131.929,269.079 131.858 C 270.681 131.788,269.370 131.730,266.165 131.730 C 262.961 131.730,261.649 131.788,263.252 131.858 M200.470 134.846 C 200.832 134.940,201.424 134.940,201.786 134.846 C 202.148 134.751,201.852 134.674,201.128 134.674 C 200.404 134.674,200.108 134.751,200.470 134.846 M146.335 158.164 C 146.903 158.250,147.834 158.250,148.402 158.164 C 148.971 158.078,148.506 158.007,147.368 158.007 C 146.231 158.007,145.766 158.078,146.335 158.164 M189.133 158.741 C 189.222 158.792,189.969 159.427,190.794 160.150 L 192.293 161.466 190.998 160.056 C 190.285 159.281,189.538 158.647,189.337 158.647 C 189.137 158.647,189.045 158.689,189.133 158.741 M399.719 179.511 C 399.723 180.338,399.800 180.632,399.890 180.165 C 399.980 179.697,399.976 179.020,399.882 178.661 C 399.788 178.302,399.715 178.684,399.719 179.511 M0.087 180.827 C 0.087 181.551,0.165 181.847,0.259 181.485 C 0.354 181.123,0.354 180.531,0.259 180.169 C 0.165 179.807,0.087 180.103,0.087 180.827 M95.940 184.114 C 97.738 184.183,100.783 184.183,102.707 184.115 C 104.630 184.047,103.158 183.990,99.436 183.990 C 95.714 183.990,94.141 184.045,95.940 184.114 M299.545 184.113 C 300.845 184.187,302.875 184.186,304.056 184.112 C 305.237 184.038,304.173 183.977,301.692 183.978 C 299.211 183.979,298.244 184.040,299.545 184.113 M290.769 200.752 C 290.769 207.265,290.820 209.930,290.883 206.673 C 290.945 203.416,290.945 198.087,290.883 194.831 C 290.820 191.574,290.769 194.239,290.769 200.752 M110.699 205.263 C 110.699 214.051,110.748 217.646,110.808 213.252 C 110.868 208.858,110.868 201.668,110.808 197.274 C 110.748 192.881,110.699 196.476,110.699 205.263 M0.095 195.677 C 0.099 196.504,0.176 196.798,0.266 196.330 C 0.356 195.863,0.352 195.186,0.258 194.826 C 0.164 194.467,0.091 194.850,0.095 195.677 M130.321 200.282 C 130.225 200.437,138.150 200.564,147.932 200.564 C 157.714 200.564,165.639 200.437,165.543 200.282 C 165.448 200.127,157.523 200.000,147.932 200.000 C 138.342 200.000,130.417 200.127,130.321 200.282 M325.470 203.661 C 326.555 203.737,328.332 203.737,329.417 203.661 C 330.503 203.585,329.615 203.523,327.444 203.523 C 325.273 203.523,324.384 203.585,325.470 203.661 M83.261 234.774 C 83.261 249.455,83.307 255.515,83.364 248.242 C 83.422 240.969,83.422 228.957,83.365 221.550 C 83.308 214.143,83.261 220.094,83.261 234.774 M336.553 209.774 C 336.553 210.498,336.631 210.794,336.725 210.432 C 336.820 210.070,336.820 209.478,336.725 209.117 C 336.631 208.755,336.553 209.051,336.553 209.774 M290.753 223.684 C 290.753 226.889,290.810 228.200,290.881 226.598 C 290.951 224.995,290.951 222.373,290.881 220.771 C 290.810 219.168,290.753 220.479,290.753 223.684 M130.398 225.286 C 130.556 225.443,138.372 225.528,147.767 225.474 L 164.850 225.376 147.481 225.188 C 137.928 225.085,130.241 225.129,130.398 225.286 M192.977 225.470 C 197.902 225.529,205.853 225.529,210.646 225.470 C 215.439 225.410,211.410 225.361,201.692 225.362 C 191.974 225.362,188.052 225.410,192.977 225.470 M246.523 225.470 C 251.330 225.529,259.196 225.529,264.004 225.470 C 268.811 225.410,264.878 225.361,255.263 225.361 C 245.648 225.361,241.715 225.410,246.523 225.470 M110.621 228.759 C 110.625 229.586,110.702 229.881,110.792 229.413 C 110.882 228.945,110.879 228.269,110.785 227.909 C 110.691 227.550,110.617 227.932,110.621 228.759 M110.672 235.150 C 110.673 237.838,110.733 238.889,110.805 237.484 C 110.878 236.080,110.877 233.881,110.804 232.597 C 110.731 231.313,110.672 232.462,110.672 235.150 M110.699 264.286 C 110.699 273.073,110.748 276.668,110.808 272.274 C 110.868 267.881,110.868 260.691,110.808 256.297 C 110.748 251.903,110.699 255.498,110.699 264.286 M290.774 264.098 C 290.774 272.782,290.823 276.281,290.883 271.873 C 290.943 267.465,290.943 260.360,290.883 256.084 C 290.823 251.807,290.773 255.414,290.774 264.098 M64.791 251.692 C 64.792 253.346,64.858 253.976,64.937 253.092 C 65.017 252.207,65.016 250.854,64.935 250.084 C 64.854 249.314,64.789 250.038,64.791 251.692 M64.791 258.459 C 64.792 260.113,64.858 260.743,64.937 259.858 C 65.017 258.974,65.016 257.621,64.935 256.851 C 64.854 256.081,64.789 256.805,64.791 258.459 M336.561 259.962 C 336.565 260.789,336.642 261.084,336.732 260.616 C 336.822 260.148,336.819 259.472,336.724 259.112 C 336.630 258.753,336.557 259.135,336.561 259.962 M165.582 273.308 C 165.582 280.235,165.633 283.069,165.695 279.605 C 165.757 276.142,165.757 270.475,165.695 267.011 C 165.633 263.548,165.582 266.382,165.582 273.308 M73.979 266.067 C 75.071 266.143,76.763 266.142,77.738 266.065 C 78.713 265.988,77.820 265.926,75.752 265.927 C 73.684 265.928,72.886 265.991,73.979 266.067 M139.218 286.372 C 144.143 286.431,152.094 286.431,156.887 286.372 C 161.680 286.312,157.650 286.264,147.932 286.264 C 138.214 286.264,134.293 286.313,139.218 286.372 M192.977 286.372 C 197.902 286.431,205.853 286.431,210.646 286.372 C 215.439 286.312,211.410 286.264,201.692 286.264 C 191.974 286.264,188.052 286.313,192.977 286.372 M246.523 286.372 C 251.330 286.431,259.196 286.431,264.004 286.372 C 268.811 286.312,264.878 286.264,255.263 286.264 C 245.648 286.264,241.715 286.312,246.523 286.372 M49.060 312.030 C 49.868 312.857,50.613 313.534,50.717 313.534 C 50.820 313.534,50.244 312.857,49.436 312.030 C 48.628 311.203,47.883 310.526,47.780 310.526 C 47.676 310.526,48.253 311.203,49.060 312.030 M350.546 312.124 L 349.060 313.722 350.658 312.236 C 351.537 311.418,352.256 310.699,352.256 310.638 C 352.256 310.354,351.928 310.638,350.546 312.124 M58.459 321.429 C 59.266 322.256,60.012 322.932,60.115 322.932 C 60.218 322.932,59.642 322.256,58.835 321.429 C 58.027 320.602,57.282 319.925,57.178 319.925 C 57.075 319.925,57.651 320.602,58.459 321.429 M341.148 321.523 L 339.662 323.120 341.259 321.634 C 342.745 320.252,343.030 319.925,342.745 319.925 C 342.684 319.925,341.965 320.644,341.148 321.523 M191.640 375.830 C 192.107 375.920,192.784 375.916,193.143 375.822 C 193.503 375.728,193.120 375.655,192.293 375.659 C 191.466 375.663,191.172 375.740,191.640 375.830 M207.237 375.823 C 207.599 375.918,208.191 375.918,208.553 375.823 C 208.914 375.728,208.618 375.651,207.895 375.651 C 207.171 375.651,206.875 375.728,207.237 375.823 " stroke="none" fill="#b4d29f" fill-rule="evenodd"></path><path id="path3" d="M187.124 0.265 C 187.589 0.355,188.351 0.355,188.816 0.265 C 189.281 0.176,188.900 0.102,187.970 0.102 C 187.039 0.102,186.659 0.176,187.124 0.265 M211.189 0.266 C 211.656 0.356,212.333 0.352,212.692 0.258 C 213.052 0.164,212.669 0.091,211.842 0.095 C 211.015 0.099,210.721 0.176,211.189 0.266 M181.673 0.635 C 182.035 0.730,182.627 0.730,182.989 0.635 C 183.351 0.541,183.055 0.463,182.331 0.463 C 181.607 0.463,181.311 0.541,181.673 0.635 M110.150 19.361 C 109.220 19.859,108.628 20.267,108.835 20.267 C 109.041 20.267,109.972 19.859,110.902 19.361 C 111.833 18.863,112.425 18.455,112.218 18.455 C 112.011 18.455,111.081 18.863,110.150 19.361 M288.722 19.173 C 289.445 19.569,290.207 19.893,290.414 19.893 C 290.620 19.893,290.197 19.569,289.474 19.173 C 288.750 18.777,287.989 18.453,287.782 18.453 C 287.575 18.453,287.998 18.777,288.722 19.173 M100.658 24.086 C 99.883 24.495,99.248 24.914,99.248 25.017 C 99.248 25.119,99.925 24.858,100.752 24.436 C 101.579 24.014,102.256 23.588,102.256 23.489 C 102.256 23.243,102.253 23.244,100.658 24.086 M297.744 23.477 C 297.744 23.580,298.252 23.927,298.872 24.248 C 299.492 24.569,300.000 24.747,300.000 24.643 C 300.000 24.540,299.492 24.193,298.872 23.872 C 298.252 23.551,297.744 23.374,297.744 23.477 M301.128 25.361 C 301.128 25.464,301.805 25.894,302.632 26.316 C 303.459 26.738,304.135 26.998,304.135 26.895 C 304.135 26.792,303.459 26.362,302.632 25.940 C 301.805 25.518,301.128 25.257,301.128 25.361 M96.898 26.155 C 95.493 26.917,95.579 27.235,96.992 26.504 C 97.613 26.183,98.120 25.840,98.120 25.742 C 98.120 25.500,98.080 25.514,96.898 26.155 M84.110 34.036 C 83.338 34.560,82.707 35.070,82.707 35.169 C 82.707 35.268,83.383 34.901,84.211 34.354 C 85.524 33.485,85.968 33.083,85.614 33.083 C 85.558 33.083,84.882 33.512,84.110 34.036 M338.346 51.621 C 338.346 51.686,338.896 52.236,339.568 52.843 L 340.789 53.947 339.685 52.726 C 338.656 51.587,338.346 51.331,338.346 51.621 M52.815 59.868 L 46.805 65.977 52.914 59.967 C 56.273 56.661,59.023 53.912,59.023 53.858 C 59.023 53.589,58.399 54.193,52.815 59.868 M346.241 59.211 C 348.819 61.795,351.013 63.910,351.117 63.910 C 351.220 63.910,349.195 61.795,346.617 59.211 C 344.038 56.626,341.844 54.511,341.741 54.511 C 341.637 54.511,343.662 56.626,346.241 59.211 M352.820 66.165 C 353.627 66.992,354.373 67.669,354.476 67.669 C 354.579 67.669,354.003 66.992,353.195 66.165 C 352.388 65.338,351.643 64.662,351.539 64.662 C 351.436 64.662,352.012 65.338,352.820 66.165 M45.468 67.575 L 44.173 68.985 45.583 67.689 C 46.358 66.977,46.992 66.342,46.992 66.280 C 46.992 65.993,46.674 66.263,45.468 67.575 M354.887 68.539 C 354.887 68.603,355.437 69.153,356.109 69.760 L 357.331 70.865 356.227 69.643 C 355.197 68.504,354.887 68.248,354.887 68.539 M369.213 87.124 C 371.049 89.879,372.317 91.523,371.605 90.226 C 370.919 88.976,367.634 84.211,367.458 84.211 C 367.355 84.211,368.144 85.522,369.213 87.124 M30.538 86.748 C 29.565 88.154,29.249 88.722,29.439 88.722 C 29.527 88.722,30.047 88.045,30.594 87.218 C 31.707 85.537,31.658 85.131,30.538 86.748 M243.397 94.455 L 242.293 95.677 243.515 94.573 C 244.187 93.965,244.737 93.415,244.737 93.351 C 244.737 93.060,244.427 93.316,243.397 94.455 M259.398 97.862 C 259.398 97.927,259.948 98.477,260.620 99.084 L 261.842 100.188 260.738 98.966 C 259.709 97.827,259.398 97.572,259.398 97.862 M22.368 100.000 C 22.048 100.620,21.870 101.128,21.973 101.128 C 22.077 101.128,22.424 100.620,22.744 100.000 C 23.065 99.380,23.243 98.872,23.140 98.872 C 23.036 98.872,22.689 99.380,22.368 100.000 M239.590 104.323 C 239.592 105.564,239.662 106.026,239.746 105.350 C 239.830 104.675,239.828 103.660,239.742 103.095 C 239.657 102.530,239.588 103.083,239.590 104.323 M19.549 105.263 C 18.923 106.504,18.495 107.519,18.598 107.519 C 18.702 107.519,19.299 106.504,19.925 105.263 C 20.551 104.023,20.979 103.008,20.875 103.008 C 20.772 103.008,20.175 104.023,19.549 105.263 M17.087 110.185 C 16.756 110.825,16.553 111.415,16.634 111.496 C 16.716 111.578,17.064 111.055,17.408 110.334 C 18.181 108.712,17.913 108.588,17.087 110.185 M247.368 109.140 C 247.368 109.205,247.918 109.755,248.590 110.362 L 249.812 111.466 248.708 110.244 C 247.679 109.105,247.368 108.850,247.368 109.140 M259.586 110.747 L 258.459 111.716 259.680 110.908 C 260.352 110.463,260.902 110.026,260.902 109.937 C 260.902 109.655,260.743 109.753,259.586 110.747 M239.453 111.936 L 238.158 113.346 239.568 112.050 C 240.880 110.844,241.150 110.526,240.863 110.526 C 240.800 110.526,240.166 111.161,239.453 111.936 M267.105 111.654 C 266.784 112.274,266.607 112.782,266.710 112.782 C 266.813 112.782,267.160 112.274,267.481 111.654 C 267.802 111.034,267.980 110.526,267.876 110.526 C 267.773 110.526,267.426 111.034,267.105 111.654 M253.477 112.675 C 254.046 112.761,254.977 112.761,255.545 112.675 C 256.114 112.589,255.648 112.519,254.511 112.519 C 253.374 112.519,252.909 112.589,253.477 112.675 M236.630 114.380 L 235.526 115.602 236.748 114.497 C 237.420 113.890,237.970 113.340,237.970 113.276 C 237.970 112.985,237.660 113.241,236.630 114.380 M264.826 114.756 L 263.722 115.977 264.944 114.873 C 265.616 114.266,266.165 113.716,266.165 113.651 C 266.165 113.361,265.855 113.617,264.826 114.756 M246.241 116.710 C 246.241 116.813,246.748 117.160,247.368 117.481 C 247.989 117.802,248.496 117.980,248.496 117.876 C 248.496 117.773,247.989 117.426,247.368 117.105 C 246.748 116.784,246.241 116.607,246.241 116.710 M230.807 119.455 L 229.511 120.865 230.921 119.569 C 232.233 118.363,232.504 118.045,232.217 118.045 C 232.154 118.045,231.519 118.680,230.807 119.455 M241.709 119.455 L 240.414 120.865 241.823 119.569 C 243.135 118.363,243.406 118.045,243.119 118.045 C 243.056 118.045,242.422 118.680,241.709 119.455 M252.923 119.073 C 253.808 119.152,255.161 119.151,255.931 119.070 C 256.701 118.989,255.977 118.925,254.323 118.926 C 252.669 118.927,252.039 118.993,252.923 119.073 M227.984 121.898 L 226.880 123.120 228.102 122.016 C 228.773 121.409,229.323 120.859,229.323 120.794 C 229.323 120.504,229.013 120.760,227.984 121.898 M238.702 122.086 L 237.406 123.496 238.816 122.201 C 240.128 120.995,240.398 120.677,240.111 120.677 C 240.049 120.677,239.414 121.311,238.702 122.086 M225.352 124.154 L 224.248 125.376 225.470 124.272 C 226.142 123.664,226.692 123.115,226.692 123.050 C 226.692 122.760,226.382 123.015,225.352 124.154 M235.879 124.530 L 234.774 125.752 235.996 124.648 C 236.668 124.040,237.218 123.491,237.218 123.426 C 237.218 123.135,236.908 123.391,235.879 124.530 M222.721 126.410 L 221.617 127.632 222.838 126.527 C 223.510 125.920,224.060 125.370,224.060 125.306 C 224.060 125.015,223.750 125.271,222.721 126.410 M220.089 128.665 L 218.985 129.887 220.207 128.783 C 220.879 128.176,221.429 127.626,221.429 127.561 C 221.429 127.271,221.118 127.527,220.089 128.665 M217.458 130.921 L 216.353 132.143 217.575 131.039 C 218.247 130.431,218.797 129.882,218.797 129.817 C 218.797 129.526,218.487 129.782,217.458 130.921 M227.608 131.673 L 226.504 132.895 227.726 131.791 C 228.398 131.183,228.947 130.633,228.947 130.569 C 228.947 130.278,228.637 130.534,227.608 131.673 M242.178 131.859 C 244.390 131.926,248.112 131.926,250.449 131.860 C 252.787 131.794,250.977 131.739,246.429 131.739 C 241.880 131.739,239.967 131.793,242.178 131.859 M257.613 131.848 C 258.181 131.934,259.112 131.934,259.680 131.848 C 260.249 131.762,259.784 131.692,258.647 131.692 C 257.509 131.692,257.044 131.762,257.613 131.848 M272.085 131.854 C 272.454 132.115,272.574 142.101,272.651 178.781 L 272.749 225.376 272.747 178.603 C 272.745 137.347,272.678 131.811,272.180 131.676 C 271.764 131.562,271.739 131.609,272.085 131.854 M237.776 178.571 C 237.776 204.314,237.821 214.845,237.876 201.974 C 237.931 189.102,237.931 168.040,237.876 155.169 C 237.821 142.298,237.776 152.829,237.776 178.571 M214.074 133.929 L 212.970 135.150 214.192 134.046 C 214.864 133.439,215.414 132.889,215.414 132.824 C 215.414 132.534,215.103 132.790,214.074 133.929 M190.772 139.192 L 189.286 140.789 190.883 139.303 C 192.369 137.921,192.654 137.594,192.370 137.594 C 192.308 137.594,191.589 138.313,190.772 139.192 M192.965 149.436 C 192.967 150.470,193.040 150.848,193.127 150.277 C 193.213 149.705,193.211 148.859,193.122 148.397 C 193.033 147.935,192.962 148.402,192.965 149.436 M215.892 149.624 C 215.892 150.555,215.965 150.935,216.055 150.470 C 216.144 150.005,216.144 149.243,216.055 148.778 C 215.965 148.313,215.892 148.694,215.892 149.624 M193.620 152.928 C 193.614 153.195,194.243 154.048,195.019 154.824 C 195.804 155.611,195.992 155.729,195.444 155.092 C 194.903 154.462,194.274 153.609,194.046 153.195 C 193.818 152.782,193.627 152.662,193.620 152.928 M200.662 157.785 C 201.130 157.875,201.807 157.871,202.166 157.777 C 202.525 157.683,202.143 157.609,201.316 157.614 C 200.489 157.618,200.195 157.695,200.662 157.785 M211.448 159.868 L 209.962 161.466 211.560 159.980 C 213.046 158.598,213.331 158.271,213.046 158.271 C 212.985 158.271,212.266 158.990,211.448 159.868 M190.607 159.543 C 191.712 160.826,194.299 162.783,194.887 162.781 C 195.115 162.780,194.709 162.425,193.985 161.992 C 193.261 161.559,191.995 160.587,191.171 159.832 C 190.107 158.858,189.944 158.774,190.607 159.543 M137.012 162.500 L 135.526 164.098 137.124 162.612 C 138.610 161.230,138.895 160.902,138.610 160.902 C 138.549 160.902,137.830 161.621,137.012 162.500 M157.977 162.606 C 158.540 163.198,159.067 163.606,159.150 163.514 C 159.232 163.421,158.772 162.937,158.127 162.438 L 156.955 161.531 157.977 162.606 M200.475 164.180 C 201.047 164.266,201.892 164.264,202.355 164.174 C 202.817 164.085,202.350 164.014,201.316 164.017 C 200.282 164.020,199.904 164.093,200.475 164.180 M132.830 172.744 C 132.832 174.192,132.900 174.738,132.981 173.958 C 133.063 173.178,133.061 171.994,132.978 171.326 C 132.895 170.659,132.828 171.297,132.830 172.744 M0.463 172.556 C 0.463 173.280,0.541 173.576,0.635 173.214 C 0.730 172.852,0.730 172.260,0.635 171.898 C 0.541 171.537,0.463 171.833,0.463 172.556 M139.200 172.932 C 139.200 173.863,139.273 174.243,139.363 173.778 C 139.453 173.313,139.453 172.552,139.363 172.086 C 139.273 171.621,139.200 172.002,139.200 172.932 M162.138 173.120 C 162.140 174.154,162.213 174.532,162.300 173.961 C 162.386 173.390,162.384 172.544,162.295 172.081 C 162.205 171.619,162.135 172.086,162.138 173.120 M399.711 177.068 C 399.711 177.791,399.789 178.087,399.883 177.726 C 399.978 177.364,399.978 176.772,399.883 176.410 C 399.789 176.048,399.711 176.344,399.711 177.068 M0.108 178.008 C 0.110 179.041,0.183 179.420,0.270 178.848 C 0.356 178.277,0.354 177.431,0.265 176.969 C 0.175 176.506,0.105 176.974,0.108 178.008 M184.007 177.162 C 183.909 177.420,183.873 188.374,183.928 201.504 L 184.028 225.376 184.119 201.226 L 184.211 177.075 201.410 176.974 L 218.609 176.872 201.398 176.782 C 187.909 176.711,184.148 176.793,184.007 177.162 M219.084 201.128 C 219.030 214.361,219.112 225.188,219.267 225.188 C 219.422 225.188,219.549 214.361,219.549 201.128 C 219.549 187.895,219.467 177.068,219.366 177.068 C 219.266 177.068,219.139 187.895,219.084 201.128 M136.842 183.271 C 137.544 183.994,138.202 184.586,138.305 184.586 C 138.409 184.586,137.919 183.994,137.218 183.271 C 136.517 182.547,135.858 181.955,135.755 181.955 C 135.651 181.955,136.141 182.547,136.842 183.271 M89.595 185.808 C 89.176 186.273,88.699 186.908,88.535 187.218 C 88.217 187.816,88.304 187.735,89.827 185.996 C 90.325 185.428,90.648 184.962,90.545 184.962 C 90.441 184.962,90.014 185.343,89.595 185.808 M313.333 207.707 C 313.333 218.665,313.381 223.094,313.440 217.549 C 313.498 212.003,313.498 203.037,313.440 197.624 C 313.381 192.211,313.333 196.748,313.333 207.707 M88.152 237.594 C 88.152 261.682,88.197 271.537,88.252 259.492 C 88.307 247.448,88.307 227.740,88.252 215.695 C 88.197 203.651,88.152 213.506,88.152 237.594 M399.726 197.368 C 399.726 198.299,399.800 198.680,399.889 198.214 C 399.979 197.749,399.979 196.988,399.889 196.523 C 399.800 196.057,399.726 196.438,399.726 197.368 M0.102 198.496 C 0.102 199.427,0.176 199.807,0.265 199.342 C 0.355 198.877,0.355 198.116,0.265 197.650 C 0.176 197.185,0.102 197.566,0.102 198.496 M165.226 212.782 C 165.226 219.566,165.352 225.038,165.508 224.942 C 165.663 224.846,165.789 219.374,165.789 212.782 C 165.789 206.190,165.663 200.718,165.508 200.622 C 165.352 200.526,165.226 205.998,165.226 212.782 M130.243 212.782 C 130.243 219.502,130.294 222.251,130.356 218.891 C 130.419 215.531,130.419 210.033,130.356 206.673 C 130.294 203.313,130.243 206.062,130.243 212.782 M71.147 204.039 C 72.749 204.109,75.371 204.109,76.974 204.039 C 78.576 203.968,77.265 203.911,74.060 203.911 C 70.855 203.911,69.544 203.968,71.147 204.039 M66.469 205.169 C 65.806 205.940,65.310 206.767,65.509 206.767 C 65.585 206.767,66.023 206.259,66.482 205.639 C 67.388 204.413,67.380 204.109,66.469 205.169 M65.125 208.271 C 65.125 208.994,65.202 209.290,65.297 208.929 C 65.391 208.567,65.391 207.975,65.297 207.613 C 65.202 207.251,65.125 207.547,65.125 208.271 M82.830 209.586 C 82.832 211.034,82.900 211.580,82.981 210.800 C 83.063 210.020,83.061 208.836,82.978 208.168 C 82.895 207.501,82.828 208.139,82.830 209.586 M318.599 234.774 C 318.599 249.868,318.646 255.988,318.703 248.375 C 318.760 240.761,318.760 228.411,318.703 220.931 C 318.646 213.451,318.599 219.680,318.599 234.774 M65.199 218.985 C 65.199 223.741,65.253 225.634,65.319 223.193 C 65.384 220.752,65.384 216.861,65.318 214.546 C 65.252 212.232,65.199 214.229,65.199 218.985 M336.266 236.466 C 336.266 248.148,336.314 252.928,336.372 247.086 C 336.430 241.245,336.430 231.687,336.372 225.846 C 336.314 220.005,336.266 224.784,336.266 236.466 M57.705 229.593 L 59.774 229.737 59.774 234.586 L 59.774 239.436 57.705 239.580 L 55.635 239.723 57.799 239.693 L 59.962 239.662 59.962 234.586 L 59.962 229.511 57.799 229.480 L 55.635 229.449 57.705 229.593 M341.517 229.814 C 341.414 230.084,341.377 232.410,341.435 234.983 L 341.541 239.662 343.797 239.688 L 346.053 239.715 343.891 239.577 L 341.729 239.438 341.729 234.587 L 341.729 229.737 343.891 229.601 L 346.053 229.465 343.879 229.394 C 342.384 229.345,341.647 229.476,341.517 229.814 M65.198 238.346 C 65.198 242.998,65.252 244.901,65.318 242.575 C 65.384 240.249,65.384 236.443,65.318 234.117 C 65.252 231.790,65.198 233.694,65.198 238.346 M115.572 230.579 C 115.466 230.858,115.437 232.338,115.509 233.870 L 115.640 236.654 115.715 233.553 L 115.789 230.451 200.752 230.451 L 285.714 230.451 285.714 234.962 L 285.714 239.472 200.846 239.568 L 115.977 239.664 200.940 239.663 L 285.902 239.662 285.902 234.962 L 285.902 230.263 200.834 230.168 C 129.833 230.089,115.734 230.157,115.572 230.579 M313.319 238.910 C 313.319 243.665,313.373 245.559,313.439 243.118 C 313.504 240.677,313.504 236.786,313.438 234.471 C 313.372 232.157,313.319 234.154,313.319 238.910 M130.248 244.831 C 130.149 245.089,130.113 254.521,130.169 265.789 L 130.270 286.278 130.360 265.511 L 130.451 244.744 148.026 244.643 L 165.602 244.541 148.015 244.451 C 134.224 244.380,130.389 244.462,130.248 244.831 M184.008 244.827 C 183.909 245.088,183.873 254.521,183.928 265.789 L 184.029 286.278 184.120 265.508 L 184.211 244.737 201.689 244.737 L 219.167 244.737 219.269 265.414 L 219.371 286.090 219.366 265.320 L 219.361 244.549 201.775 244.451 C 187.908 244.374,184.151 244.454,184.008 244.827 M237.768 244.827 C 237.668 245.088,237.632 254.521,237.688 265.789 L 237.789 286.278 237.879 265.508 L 237.970 244.737 255.260 244.737 L 272.550 244.737 272.652 265.414 L 272.754 286.090 272.749 265.320 L 272.744 244.549 255.347 244.451 C 241.630 244.374,237.911 244.454,237.768 244.827 M165.572 253.383 C 165.572 257.622,165.627 259.356,165.694 257.237 C 165.761 255.117,165.761 251.649,165.694 249.530 C 165.627 247.411,165.572 249.145,165.572 253.383 M82.814 256.203 C 82.817 257.237,82.890 257.615,82.977 257.044 C 83.063 256.472,83.061 255.626,82.971 255.164 C 82.882 254.702,82.811 255.169,82.814 256.203 M313.301 259.211 C 313.302 261.692,313.363 262.658,313.437 261.357 C 313.510 260.057,313.510 258.027,313.435 256.846 C 313.361 255.665,313.301 256.729,313.301 259.211 M15.064 261.090 C 15.064 261.297,15.306 261.889,15.602 262.406 C 15.897 262.923,16.139 263.177,16.139 262.970 C 16.139 262.763,15.897 262.171,15.602 261.654 C 15.306 261.137,15.064 260.883,15.064 261.090 M318.812 262.726 C 318.793 263.378,321.194 265.790,321.861 265.788 C 322.140 265.787,321.828 265.457,321.168 265.055 C 320.509 264.653,319.712 263.850,319.398 263.271 C 319.084 262.692,318.820 262.446,318.812 262.726 M66.999 264.756 C 67.581 265.324,68.350 265.779,68.709 265.766 C 69.158 265.749,69.068 265.625,68.421 265.367 C 67.904 265.161,67.135 264.707,66.711 264.357 C 66.288 264.008,66.417 264.187,66.999 264.756 M81.531 264.155 C 81.247 264.497,80.508 264.998,79.887 265.268 C 79.207 265.565,79.018 265.766,79.411 265.775 C 79.997 265.788,82.851 263.571,82.283 263.545 C 82.153 263.539,81.815 263.814,81.531 264.155 M335.132 263.940 C 334.993 264.164,334.349 264.671,333.700 265.067 C 333.050 265.463,332.728 265.787,332.983 265.788 C 333.464 265.790,336.102 263.564,335.642 263.545 C 335.500 263.539,335.270 263.717,335.132 263.940 M70.395 266.049 C 70.757 266.143,71.349 266.143,71.711 266.049 C 72.072 265.954,71.776 265.877,71.053 265.877 C 70.329 265.877,70.033 265.954,70.395 266.049 M324.349 266.062 C 325.025 266.146,326.040 266.144,326.604 266.058 C 327.169 265.972,326.617 265.904,325.376 265.906 C 324.135 265.908,323.673 265.978,324.349 266.062 M329.610 266.055 C 330.077 266.145,330.754 266.142,331.113 266.048 C 331.473 265.954,331.090 265.880,330.263 265.884 C 329.436 265.888,329.142 265.965,329.610 266.055 M313.289 272.932 C 313.289 274.690,313.354 275.409,313.433 274.530 C 313.512 273.651,313.512 272.213,313.433 271.335 C 313.354 270.456,313.289 271.175,313.289 272.932 M378.571 273.308 C 378.149 274.135,377.889 274.812,377.992 274.812 C 378.096 274.812,378.525 274.135,378.947 273.308 C 379.369 272.481,379.630 271.805,379.527 271.805 C 379.423 271.805,378.993 272.481,378.571 273.308 M311.867 283.365 C 311.054 284.403,310.989 284.578,311.620 284.027 C 312.374 283.368,313.368 281.955,313.077 281.955 C 313.018 281.955,312.474 282.589,311.867 283.365 M371.948 284.680 C 370.654 286.876,370.569 287.063,371.228 286.278 C 371.992 285.368,372.650 284.211,372.404 284.211 C 372.305 284.211,372.100 284.422,371.948 284.680 M369.173 288.910 C 368.533 289.840,368.094 290.602,368.197 290.602 C 368.300 290.602,368.909 289.840,369.549 288.910 C 370.189 287.979,370.628 287.218,370.525 287.218 C 370.421 287.218,369.813 287.979,369.173 288.910 M35.330 295.853 C 35.767 296.467,36.317 297.088,36.552 297.233 C 36.787 297.378,36.505 296.876,35.926 296.117 C 34.669 294.469,34.196 294.260,35.330 295.853 M42.857 305.381 C 42.857 305.445,43.407 305.995,44.079 306.603 L 45.301 307.707 44.197 306.485 C 43.167 305.346,42.857 305.090,42.857 305.381 M45.489 308.388 C 45.489 308.453,46.039 309.003,46.711 309.610 L 47.932 310.714 46.828 309.492 C 45.799 308.354,45.489 308.098,45.489 308.388 M353.172 309.492 L 352.068 310.714 353.289 309.610 C 353.961 309.003,354.511 308.453,354.511 308.388 C 354.511 308.098,354.201 308.354,353.172 309.492 M345.860 317.199 L 340.414 322.744 345.959 317.298 C 351.110 312.239,351.674 311.654,351.405 311.654 C 351.351 311.654,348.855 314.149,345.860 317.199 M53.571 316.917 C 56.253 319.605,58.532 321.805,58.636 321.805 C 58.739 321.805,56.629 319.605,53.947 316.917 C 51.265 314.229,48.986 312.030,48.883 312.030 C 48.780 312.030,50.889 314.229,53.571 316.917 M60.150 323.050 C 60.150 323.115,60.700 323.664,61.372 324.272 L 62.594 325.376 61.490 324.154 C 60.461 323.015,60.150 322.760,60.150 323.050 M338.326 324.342 L 337.030 325.752 338.440 324.456 C 339.752 323.250,340.022 322.932,339.735 322.932 C 339.673 322.932,339.038 323.567,338.326 324.342 M334.023 328.053 L 332.143 329.775 334.117 328.199 C 335.825 326.833,336.367 326.293,335.996 326.324 C 335.945 326.328,335.056 327.106,334.023 328.053 M82.960 341.008 C 83.426 341.572,85.714 343.012,85.714 342.740 C 85.714 342.653,84.995 342.107,84.117 341.527 C 83.238 340.948,82.717 340.714,82.960 341.008 M302.162 349.839 C 300.756 350.602,300.842 350.919,302.256 350.188 C 302.876 349.867,303.383 349.525,303.383 349.426 C 303.383 349.185,303.343 349.198,302.162 349.839 M298.778 351.719 C 297.373 352.481,297.458 352.799,298.872 352.068 C 299.492 351.747,300.000 351.404,300.000 351.306 C 300.000 351.064,299.960 351.078,298.778 351.719 M287.970 357.143 C 287.246 357.539,286.823 357.863,287.030 357.863 C 287.237 357.863,287.998 357.539,288.722 357.143 C 289.445 356.747,289.868 356.422,289.662 356.422 C 289.455 356.422,288.694 356.747,287.970 357.143 M183.177 375.447 C 183.539 375.542,184.131 375.542,184.492 375.447 C 184.854 375.353,184.558 375.275,183.835 375.275 C 183.111 375.275,182.815 375.353,183.177 375.447 M215.508 375.447 C 215.869 375.542,216.461 375.542,216.823 375.447 C 217.185 375.353,216.889 375.275,216.165 375.275 C 215.442 375.275,215.146 375.353,215.508 375.447 M188.628 375.829 C 189.093 375.919,189.854 375.919,190.320 375.829 C 190.785 375.740,190.404 375.666,189.474 375.666 C 188.543 375.666,188.163 375.740,188.628 375.829 M209.874 375.834 C 210.445 375.920,211.291 375.918,211.753 375.829 C 212.216 375.739,211.748 375.669,210.714 375.671 C 209.680 375.674,209.302 375.747,209.874 375.834 " stroke="none" fill="#cce6b3" fill-rule="evenodd"></path><path id="path4" d="M185.620 0.641 C 186.086 0.731,186.847 0.731,187.312 0.641 C 187.777 0.552,187.397 0.478,186.466 0.478 C 185.536 0.478,185.155 0.552,185.620 0.641 M212.688 0.641 C 213.153 0.731,213.914 0.731,214.380 0.641 C 214.845 0.552,214.464 0.478,213.534 0.478 C 212.603 0.478,212.223 0.552,212.688 0.641 M180.169 1.011 C 180.531 1.106,181.123 1.106,181.485 1.011 C 181.847 0.916,181.551 0.839,180.827 0.839 C 180.103 0.839,179.807 0.916,180.169 1.011 M146.241 6.767 C 145.466 7.015,145.433 7.073,146.053 7.100 C 146.466 7.117,147.058 6.967,147.368 6.767 C 148.027 6.341,147.570 6.341,146.241 6.767 M252.632 6.750 C 252.942 6.960,253.520 7.134,253.916 7.137 C 254.878 7.145,254.578 6.930,253.195 6.620 C 252.372 6.436,252.220 6.471,252.632 6.750 M258.083 8.271 C 258.210 8.477,258.686 8.635,259.139 8.620 C 259.933 8.595,259.935 8.582,259.211 8.271 C 258.176 7.826,257.808 7.826,258.083 8.271 M79.525 37.638 C 77.550 39.122,77.365 39.368,78.879 38.498 C 79.946 37.885,81.623 36.415,81.167 36.492 C 81.084 36.506,80.344 37.022,79.525 37.638 M319.384 37.331 C 319.570 37.815,321.429 38.924,321.429 38.551 C 321.429 38.467,320.922 38.037,320.303 37.596 C 319.564 37.069,319.249 36.979,319.384 37.331 M67.293 46.992 C 66.363 47.807,65.721 48.479,65.867 48.485 C 66.013 48.491,66.859 47.822,67.747 46.997 C 69.827 45.065,69.498 45.062,67.293 46.992 M62.032 51.524 C 60.377 52.983,59.023 54.261,59.023 54.365 C 59.023 54.468,60.418 53.333,62.124 51.843 C 63.830 50.353,65.296 49.074,65.382 49.003 C 65.468 48.931,65.427 48.872,65.291 48.872 C 65.154 48.872,63.688 50.066,62.032 51.524 M335.714 49.742 C 335.714 49.806,336.264 50.356,336.936 50.963 L 338.158 52.068 337.054 50.846 C 336.024 49.707,335.714 49.451,335.714 49.742 M341.353 55.075 C 343.102 56.833,344.617 58.271,344.720 58.271 C 344.824 58.271,343.478 56.833,341.729 55.075 C 339.981 53.318,338.466 51.880,338.362 51.880 C 338.259 51.880,339.605 53.318,341.353 55.075 M53.377 59.673 L 49.060 64.083 53.571 59.770 C 56.053 57.398,58.153 55.414,58.239 55.360 C 58.326 55.307,58.238 55.263,58.045 55.263 C 57.852 55.263,55.752 57.248,53.377 59.673 M46.787 66.635 L 45.301 68.233 46.898 66.747 C 47.777 65.930,48.496 65.211,48.496 65.149 C 48.496 64.865,48.169 65.149,46.787 66.635 M351.711 65.516 C 351.812 65.779,352.272 66.224,352.733 66.505 C 353.533 66.992,353.529 66.970,352.660 66.027 C 351.642 64.922,351.442 64.814,351.711 65.516 M353.759 67.787 C 353.759 67.852,354.309 68.401,354.981 69.009 L 356.203 70.113 355.099 68.891 C 354.070 67.752,353.759 67.496,353.759 67.787 M31.801 85.526 C 31.463 86.043,31.332 86.466,31.510 86.466 C 31.688 86.466,32.027 86.043,32.262 85.526 C 32.498 85.009,32.629 84.586,32.554 84.586 C 32.479 84.586,32.140 85.009,31.801 85.526 M367.929 86.064 C 368.034 86.463,368.357 86.881,368.647 86.993 C 369.061 87.151,369.043 86.994,368.567 86.267 C 367.835 85.149,367.677 85.099,367.929 86.064 M251.316 89.474 L 250.564 89.797 251.316 89.797 C 251.729 89.797,252.406 89.651,252.820 89.474 L 253.571 89.151 252.820 89.151 C 252.406 89.151,251.729 89.296,251.316 89.474 M259.774 90.494 C 260.085 90.609,260.677 90.859,261.090 91.049 C 261.830 91.389,261.830 91.386,261.112 90.810 C 260.711 90.489,260.119 90.239,259.797 90.255 C 259.290 90.281,259.287 90.313,259.774 90.494 M243.403 94.079 L 241.917 95.677 243.515 94.191 C 245.001 92.809,245.286 92.481,245.001 92.481 C 244.940 92.481,244.221 93.200,243.403 94.079 M241.024 96.853 C 240.398 98.227,240.671 98.303,241.437 96.968 C 241.785 96.361,241.936 95.865,241.772 95.865 C 241.608 95.865,241.271 96.309,241.024 96.853 M253.853 96.500 C 254.215 96.594,254.807 96.594,255.169 96.500 C 255.531 96.405,255.235 96.328,254.511 96.328 C 253.788 96.328,253.492 96.405,253.853 96.500 M239.218 104.135 C 239.218 105.479,239.286 106.029,239.370 105.357 C 239.453 104.685,239.453 103.586,239.370 102.914 C 239.286 102.242,239.218 102.791,239.218 104.135 M240.255 110.136 C 240.239 110.439,239.760 111.082,239.192 111.566 C 238.464 112.185,238.390 112.335,238.941 112.070 C 240.015 111.555,240.712 110.649,240.479 110.069 C 240.337 109.716,240.277 109.735,240.255 110.136 M253.665 112.295 C 254.131 112.385,254.892 112.385,255.357 112.295 C 255.822 112.206,255.442 112.132,254.511 112.132 C 253.581 112.132,253.200 112.206,253.665 112.295 M265.434 114.404 L 263.387 116.729 265.181 115.038 C 266.664 113.639,268.021 111.957,267.588 112.054 C 267.529 112.067,266.560 113.125,265.434 114.404 M244.149 117.763 L 243.045 118.985 244.359 117.857 C 245.082 117.237,245.744 116.687,245.831 116.635 C 245.919 116.584,245.824 116.541,245.622 116.541 C 245.419 116.541,244.757 117.091,244.149 117.763 M229.488 120.019 L 228.383 121.241 229.605 120.136 C 230.277 119.529,230.827 118.979,230.827 118.915 C 230.827 118.624,230.517 118.880,229.488 120.019 M241.142 120.395 L 240.038 121.617 241.259 120.512 C 241.931 119.905,242.481 119.355,242.481 119.291 C 242.481 119.000,242.171 119.256,241.142 120.395 M237.950 123.214 L 236.654 124.624 238.064 123.329 C 239.376 122.123,239.647 121.805,239.359 121.805 C 239.297 121.805,238.662 122.439,237.950 123.214 M223.496 125.064 C 222.669 125.805,222.331 126.237,222.744 126.022 C 223.441 125.661,225.517 123.665,225.160 123.700 C 225.072 123.708,224.323 124.322,223.496 125.064 M219.165 128.977 L 216.729 131.262 219.267 129.098 C 221.562 127.141,222.017 126.692,221.702 126.692 C 221.646 126.692,220.504 127.720,219.165 128.977 M232.495 127.914 L 231.391 129.135 232.613 128.031 C 233.285 127.424,233.835 126.874,233.835 126.809 C 233.835 126.519,233.524 126.775,232.495 127.914 M237.308 178.455 C 237.259 204.134,237.345 225.222,237.500 225.318 C 237.755 225.476,237.753 192.628,237.496 148.496 C 237.442 139.295,237.358 152.777,237.308 178.455 M273.114 178.008 C 273.114 203.440,273.159 213.899,273.214 201.251 C 273.269 188.602,273.269 167.794,273.214 155.010 C 273.159 142.226,273.114 152.575,273.114 178.008 M212.386 134.868 L 211.090 136.278 212.500 134.983 C 213.812 133.777,214.083 133.459,213.796 133.459 C 213.733 133.459,213.098 134.093,212.386 134.868 M7.734 135.177 C 7.595 135.728,7.555 136.251,7.643 136.340 C 7.732 136.429,7.918 136.050,8.056 135.499 C 8.194 134.949,8.235 134.425,8.146 134.337 C 8.058 134.248,7.872 134.626,7.734 135.177 M197.368 134.958 C 196.984 135.202,197.284 135.243,198.308 135.087 C 200.167 134.802,200.483 134.585,199.029 134.592 C 198.426 134.595,197.679 134.760,197.368 134.958 M192.220 137.433 L 191.165 138.401 192.387 137.551 C 193.059 137.083,193.609 136.648,193.609 136.583 C 193.609 136.287,193.193 136.541,192.220 137.433 M189.210 140.320 C 188.787 140.785,188.246 141.588,188.009 142.105 C 187.644 142.902,187.651 142.938,188.056 142.337 C 188.319 141.947,188.930 141.144,189.413 140.551 C 190.456 139.274,190.312 139.110,189.210 140.320 M5.854 141.944 C 5.716 142.495,5.675 143.018,5.764 143.107 C 5.852 143.196,6.038 142.817,6.176 142.266 C 6.314 141.715,6.355 141.192,6.266 141.104 C 6.178 141.015,5.992 141.393,5.854 141.944 M393.673 141.541 C 393.667 141.955,393.807 142.632,393.985 143.045 C 394.397 144.003,394.397 143.015,393.985 141.729 C 393.743 140.974,393.682 140.937,393.673 141.541 M195.490 143.796 C 195.005 144.312,194.680 144.797,194.767 144.874 C 194.854 144.951,195.318 144.528,195.799 143.935 C 196.876 142.608,196.686 142.522,195.490 143.796 M186.853 144.145 C 186.640 144.704,186.474 145.447,186.483 145.795 C 186.492 146.144,186.738 145.758,187.030 144.939 C 187.622 143.276,187.460 142.548,186.853 144.145 M186.177 147.744 C 186.177 148.468,186.255 148.764,186.349 148.402 C 186.444 148.040,186.444 147.448,186.349 147.086 C 186.255 146.725,186.177 147.021,186.177 147.744 M4.555 147.432 C 4.531 147.777,4.414 148.369,4.295 148.747 C 4.090 149.400,4.101 149.401,4.508 148.766 C 4.744 148.398,4.861 147.806,4.768 147.451 C 4.615 146.869,4.594 146.867,4.555 147.432 M209.110 149.624 C 209.110 150.348,209.187 150.644,209.282 150.282 C 209.376 149.920,209.376 149.328,209.282 148.966 C 209.187 148.604,209.110 148.900,209.110 149.624 M186.177 150.752 C 186.177 151.476,186.255 151.772,186.349 151.410 C 186.444 151.048,186.444 150.456,186.349 150.094 C 186.255 149.732,186.177 150.028,186.177 150.752 M213.613 157.800 C 213.140 158.525,212.825 159.191,212.912 159.278 C 213.000 159.366,213.449 158.828,213.910 158.083 C 214.997 156.323,214.738 156.076,213.613 157.800 M157.977 162.230 C 158.540 162.822,159.067 163.230,159.150 163.138 C 159.232 163.046,158.772 162.562,158.127 162.062 L 156.955 161.155 157.977 162.230 M200.658 164.551 C 201.123 164.641,201.884 164.641,202.350 164.551 C 202.815 164.461,202.434 164.388,201.504 164.388 C 200.573 164.388,200.193 164.461,200.658 164.551 M0.847 170.865 C 0.851 171.692,0.928 171.986,1.018 171.518 C 1.108 171.051,1.104 170.374,1.010 170.014 C 0.916 169.655,0.843 170.038,0.847 170.865 M132.457 172.932 C 132.457 174.483,132.524 175.117,132.605 174.342 C 132.686 173.567,132.686 172.298,132.605 171.523 C 132.524 170.747,132.457 171.382,132.457 172.932 M155.358 173.120 C 155.362 173.947,155.439 174.241,155.529 173.774 C 155.619 173.306,155.616 172.629,155.521 172.270 C 155.427 171.911,155.354 172.293,155.358 173.120 M399.361 176.316 C 399.361 177.453,399.431 177.918,399.517 177.350 C 399.604 176.781,399.604 175.851,399.517 175.282 C 399.431 174.713,399.361 175.179,399.361 176.316 M0.431 177.068 C 0.462 179.120,0.465 179.124,0.756 177.632 C 0.917 176.805,0.903 175.874,0.724 175.564 C 0.514 175.200,0.410 175.735,0.431 177.068 M192.977 176.597 C 197.902 176.657,205.853 176.657,210.646 176.597 C 215.439 176.538,211.410 176.489,201.692 176.489 C 191.974 176.489,188.052 176.538,192.977 176.597 M141.541 178.149 C 142.688 179.411,144.658 180.655,144.988 180.325 C 145.088 180.225,144.800 180.026,144.348 179.883 C 143.896 179.740,142.826 179.011,141.970 178.265 C 140.424 176.916,140.421 176.915,141.541 178.149 M219.549 201.203 C 219.445 214.581,219.489 225.398,219.646 225.242 C 219.802 225.085,219.887 214.139,219.834 200.918 L 219.737 176.880 219.549 201.203 M136.466 183.271 C 137.168 183.994,137.826 184.586,137.929 184.586 C 138.033 184.586,137.544 183.994,136.842 183.271 C 136.141 182.547,135.482 181.955,135.379 181.955 C 135.275 181.955,135.765 182.547,136.466 183.271 M158.242 183.320 C 157.373 184.264,157.370 184.286,158.169 183.798 C 158.631 183.517,159.091 183.072,159.191 182.809 C 159.461 182.107,159.260 182.216,158.242 183.320 M89.912 185.244 C 89.136 186.020,89.032 186.181,89.680 185.604 C 90.329 185.026,91.352 184.406,91.953 184.226 C 92.898 183.943,92.929 183.895,92.185 183.867 C 91.663 183.847,90.769 184.389,89.912 185.244 M293.775 184.419 C 293.057 184.995,293.057 184.998,293.797 184.658 C 294.211 184.468,294.803 184.218,295.113 184.103 C 295.600 183.922,295.597 183.890,295.091 183.864 C 294.768 183.848,294.176 184.098,293.775 184.419 M309.586 184.107 C 310.000 184.208,310.592 184.485,310.902 184.721 C 311.393 185.094,311.399 185.065,310.950 184.492 C 310.666 184.131,310.074 183.854,309.634 183.878 C 308.875 183.920,308.872 183.931,309.586 184.107 M110.137 187.193 C 110.351 187.593,110.526 188.298,110.526 188.760 C 110.526 189.221,110.631 189.494,110.759 189.366 C 111.110 189.015,110.548 186.466,110.120 186.466 C 109.880 186.466,109.886 186.725,110.137 187.193 M87.822 187.813 C 87.493 188.671,87.552 281.306,87.882 281.825 C 88.034 282.064,88.158 260.875,88.158 234.739 C 88.158 208.602,88.134 187.218,88.104 187.218 C 88.075 187.218,87.948 187.486,87.822 187.813 M313.716 233.459 C 313.716 258.581,313.761 268.858,313.816 256.297 C 313.871 243.736,313.871 223.181,313.816 210.620 C 313.761 198.059,313.716 208.336,313.716 233.459 M399.146 196.953 C 398.876 199.554,398.964 200.409,399.453 199.920 C 399.566 199.807,399.609 198.468,399.547 196.944 L 399.436 194.173 399.146 196.953 M0.478 199.624 C 0.478 200.555,0.552 200.935,0.641 200.470 C 0.731 200.005,0.731 199.243,0.641 198.778 C 0.552 198.313,0.478 198.694,0.478 199.624 M165.789 212.706 L 165.977 225.376 166.076 212.994 C 166.131 206.184,166.047 200.483,165.889 200.324 C 165.731 200.166,165.686 205.738,165.789 212.706 M398.959 203.759 C 398.959 204.483,399.037 204.779,399.131 204.417 C 399.226 204.055,399.226 203.463,399.131 203.102 C 399.037 202.740,398.959 203.036,398.959 203.759 M71.335 203.663 C 72.834 203.734,75.287 203.734,76.786 203.663 C 78.285 203.591,77.058 203.533,74.060 203.533 C 71.062 203.533,69.836 203.591,71.335 203.663 M0.839 204.887 C 0.839 205.611,0.916 205.907,1.011 205.545 C 1.106 205.183,1.106 204.591,1.011 204.229 C 0.916 203.867,0.839 204.164,0.839 204.887 M65.860 205.248 C 64.781 206.707,64.791 207.190,65.870 205.784 C 66.329 205.187,66.878 204.575,67.092 204.423 C 67.358 204.235,67.354 204.145,67.082 204.141 C 66.862 204.138,66.313 204.636,65.860 205.248 M318.223 234.774 C 318.224 249.868,318.270 255.988,318.327 248.375 C 318.384 240.761,318.384 228.411,318.327 220.931 C 318.270 213.451,318.223 219.680,318.223 234.774 M64.837 228.383 C 64.837 239.756,64.885 244.462,64.943 238.842 C 65.002 233.223,65.002 223.918,64.943 218.166 C 64.885 212.413,64.837 217.011,64.837 228.383 M398.215 210.338 C 398.219 211.165,398.296 211.459,398.386 210.992 C 398.476 210.524,398.473 209.848,398.379 209.488 C 398.285 209.129,398.211 209.511,398.215 210.338 M1.591 211.278 C 1.591 212.002,1.668 212.298,1.763 211.936 C 1.857 211.574,1.857 210.982,1.763 210.620 C 1.668 210.258,1.591 210.555,1.591 211.278 M336.643 234.774 C 336.643 248.008,336.690 253.367,336.748 246.683 C 336.806 240.000,336.805 229.173,336.748 222.623 C 336.690 216.073,336.643 221.541,336.643 234.774 M290.730 215.226 C 290.732 216.880,290.798 217.510,290.877 216.625 C 290.957 215.741,290.956 214.388,290.875 213.618 C 290.794 212.848,290.729 213.571,290.730 215.226 M2.115 215.414 C 2.420 217.519,2.633 217.820,2.626 216.134 C 2.623 215.428,2.451 214.596,2.245 214.286 C 1.982 213.892,1.943 214.231,2.115 215.414 M110.660 224.248 C 110.659 226.109,110.722 226.918,110.801 226.045 C 110.880 225.173,110.881 223.650,110.803 222.662 C 110.725 221.673,110.661 222.387,110.660 224.248 M4.378 227.444 C 4.675 229.065,4.889 229.371,4.881 228.164 C 4.878 227.664,4.709 227.002,4.506 226.692 C 4.246 226.295,4.208 226.518,4.378 227.444 M56.673 229.213 C 57.138 229.302,57.899 229.302,58.365 229.213 C 58.830 229.123,58.449 229.050,57.519 229.050 C 56.588 229.050,56.208 229.123,56.673 229.213 M342.763 229.219 C 343.435 229.303,344.535 229.303,345.207 229.219 C 345.879 229.136,345.329 229.068,343.985 229.068 C 342.641 229.068,342.091 229.136,342.763 229.219 M290.737 232.707 C 290.737 234.671,290.800 235.475,290.878 234.492 C 290.955 233.510,290.955 231.903,290.878 230.921 C 290.800 229.939,290.737 230.742,290.737 232.707 M130.384 229.981 C 137.068 230.039,147.895 230.039,154.445 229.981 C 160.994 229.923,155.526 229.876,142.293 229.876 C 129.060 229.876,123.701 229.924,130.384 229.981 M177.941 229.981 C 184.314 230.039,194.633 230.039,200.873 229.981 C 207.113 229.923,201.898 229.876,189.286 229.876 C 176.673 229.876,171.568 229.923,177.941 229.981 M223.380 229.980 C 226.004 230.045,230.403 230.045,233.155 229.980 C 235.906 229.916,233.759 229.863,228.383 229.863 C 223.008 229.863,220.756 229.915,223.380 229.980 M250.658 229.981 C 257.119 230.039,267.693 230.039,274.154 229.981 C 280.616 229.923,275.329 229.876,262.406 229.876 C 249.483 229.876,244.196 229.923,250.658 229.981 M286.234 234.774 C 286.234 237.256,286.295 238.222,286.369 236.921 C 286.443 235.621,286.442 233.591,286.368 232.410 C 286.293 231.229,286.233 232.293,286.234 234.774 M60.263 233.083 C 60.263 234.220,60.334 234.685,60.420 234.117 C 60.506 233.548,60.506 232.617,60.420 232.049 C 60.334 231.480,60.263 231.945,60.263 233.083 M5.703 232.707 C 5.722 233.684,6.314 235.288,6.327 234.398 C 6.333 233.985,6.193 233.308,6.015 232.895 C 5.817 232.434,5.696 232.361,5.703 232.707 M393.108 235.589 C 392.970 235.727,392.868 236.192,392.881 236.623 C 392.903 237.343,392.934 237.334,393.265 236.506 C 393.633 235.585,393.557 235.140,393.108 235.589 M341.072 237.782 C 341.076 238.609,341.153 238.903,341.243 238.435 C 341.333 237.968,341.330 237.291,341.236 236.932 C 341.142 236.572,341.068 236.955,341.072 237.782 M53.172 238.628 C 53.779 239.300,54.540 239.836,54.864 239.820 C 55.370 239.794,55.373 239.762,54.887 239.585 C 54.577 239.472,53.816 238.936,53.195 238.393 L 52.068 237.406 53.172 238.628 M7.202 238.534 C 7.201 238.741,7.428 239.502,7.707 240.226 C 7.985 240.949,8.219 241.288,8.225 240.977 C 8.232 240.667,8.004 239.906,7.720 239.286 C 7.436 238.665,7.203 238.327,7.202 238.534 M391.944 239.689 C 391.806 240.239,391.765 240.763,391.854 240.851 C 391.942 240.940,392.128 240.562,392.266 240.011 C 392.405 239.460,392.445 238.937,392.357 238.848 C 392.268 238.759,392.082 239.138,391.944 239.689 M110.670 244.173 C 110.671 246.654,110.731 247.620,110.805 246.320 C 110.879 245.019,110.878 242.989,110.804 241.809 C 110.729 240.628,110.669 241.692,110.670 244.173 M290.718 241.917 C 290.720 243.158,290.790 243.620,290.874 242.944 C 290.958 242.269,290.956 241.254,290.870 240.689 C 290.784 240.124,290.716 240.677,290.718 241.917 M342.575 240.119 C 343.144 240.205,344.074 240.205,344.643 240.119 C 345.211 240.033,344.746 239.962,343.609 239.962 C 342.472 239.962,342.007 240.033,342.575 240.119 M131.297 244.254 C 131.866 244.340,132.796 244.340,133.365 244.254 C 133.933 244.168,133.468 244.098,132.331 244.098 C 131.194 244.098,130.728 244.168,131.297 244.254 M142.594 244.265 C 144.413 244.334,147.289 244.334,148.985 244.264 C 150.680 244.195,149.192 244.138,145.677 244.139 C 142.162 244.139,140.774 244.196,142.594 244.265 M157.254 244.265 C 158.866 244.335,161.404 244.335,162.893 244.264 C 164.383 244.193,163.064 244.135,159.962 244.135 C 156.861 244.136,155.642 244.194,157.254 244.265 M204.583 244.266 C 207.207 244.330,211.606 244.330,214.358 244.266 C 217.109 244.202,214.962 244.149,209.586 244.149 C 204.211 244.149,201.959 244.201,204.583 244.266 M246.523 244.267 C 251.330 244.326,259.196 244.326,264.004 244.267 C 268.811 244.207,264.878 244.158,255.263 244.158 C 245.648 244.158,241.715 244.207,246.523 244.267 M183.626 255.639 C 183.626 261.945,183.677 264.525,183.740 261.372 C 183.803 258.219,183.803 253.059,183.740 249.906 C 183.677 246.753,183.626 249.333,183.626 255.639 M219.549 265.301 C 219.445 276.921,219.489 286.300,219.646 286.144 C 219.803 285.987,219.887 276.479,219.834 265.016 L 219.737 244.173 219.549 265.301 M129.786 245.865 C 129.786 246.588,129.864 246.884,129.958 246.523 C 130.053 246.161,130.053 245.569,129.958 245.207 C 129.864 244.845,129.786 245.141,129.786 245.865 M165.789 265.489 C 165.686 277.006,165.730 286.300,165.887 286.144 C 166.044 285.987,166.128 276.564,166.075 265.204 L 165.977 244.549 165.789 265.489 M237.213 265.001 C 237.094 278.334,237.161 285.631,237.406 285.967 C 237.759 286.450,237.791 274.070,237.494 251.880 C 237.440 247.848,237.313 253.752,237.213 265.001 M389.893 246.278 C 389.662 246.939,389.486 247.667,389.500 247.894 C 389.515 248.122,389.769 247.646,390.066 246.837 C 390.362 246.028,390.539 245.301,390.458 245.220 C 390.378 245.140,390.124 245.616,389.893 246.278 M290.704 246.992 C 290.704 247.923,290.777 248.304,290.867 247.838 C 290.956 247.373,290.956 246.612,290.867 246.147 C 290.777 245.681,290.704 246.062,290.704 246.992 M273.107 265.602 C 273.107 276.147,273.155 280.515,273.214 275.308 C 273.273 270.102,273.273 261.474,273.214 256.135 C 273.155 250.797,273.107 255.056,273.107 265.602 M129.820 250.000 C 129.820 251.344,129.888 251.894,129.971 251.222 C 130.055 250.550,130.055 249.450,129.971 248.778 C 129.888 248.106,129.820 248.656,129.820 250.000 M382.210 265.243 C 381.327 267.095,381.451 267.410,382.375 265.660 C 382.794 264.865,383.071 264.148,382.989 264.067 C 382.908 263.986,382.557 264.515,382.210 265.243 M20.190 270.854 C 20.745 271.986,21.262 272.848,21.339 272.771 C 21.508 272.602,19.612 268.797,19.359 268.797 C 19.261 268.797,19.635 269.723,20.190 270.854 M379.511 270.677 C 378.987 271.711,378.643 272.556,378.747 272.556 C 378.850 272.556,379.363 271.711,379.887 270.677 C 380.411 269.643,380.755 268.797,380.652 268.797 C 380.548 268.797,380.035 269.643,379.511 270.677 M25.000 279.699 C 25.321 280.320,25.668 280.827,25.771 280.827 C 25.875 280.827,25.697 280.320,25.376 279.699 C 25.055 279.079,24.708 278.571,24.605 278.571 C 24.501 278.571,24.679 279.079,25.000 279.699 M374.637 279.544 C 374.287 280.079,374.065 280.581,374.144 280.660 C 374.223 280.739,374.584 280.302,374.947 279.688 C 375.757 278.316,375.515 278.204,374.637 279.544 M290.640 280.473 C 290.619 281.002,290.868 281.764,291.193 282.165 C 291.519 282.566,291.661 282.656,291.509 282.364 C 291.358 282.072,291.109 281.310,290.956 280.672 C 290.701 279.605,290.675 279.589,290.640 280.473 M89.084 283.722 C 89.846 284.765,90.939 285.573,91.154 285.253 C 91.192 285.197,90.544 284.558,89.714 283.835 L 88.205 282.519 89.084 283.722 M129.699 284.752 C 129.699 285.464,129.829 286.126,129.988 286.224 C 130.147 286.323,130.214 285.740,130.137 284.931 C 129.963 283.113,129.699 283.005,129.699 284.752 M92.201 285.559 C 92.477 285.836,105.284 285.819,105.561 285.542 C 105.673 285.430,102.663 285.338,98.872 285.338 C 95.081 285.338,92.079 285.438,92.201 285.559 M295.206 285.557 C 295.463 285.813,308.715 285.771,308.973 285.513 C 309.069 285.417,305.962 285.338,302.068 285.338 C 298.174 285.338,295.086 285.437,295.206 285.557 M131.489 286.732 C 131.957 286.822,132.634 286.819,132.993 286.724 C 133.353 286.630,132.970 286.557,132.143 286.561 C 131.316 286.565,131.022 286.642,131.489 286.732 M141.635 286.745 C 142.928 286.818,145.042 286.818,146.335 286.745 C 147.627 286.671,146.570 286.611,143.985 286.611 C 141.400 286.611,140.343 286.671,141.635 286.745 M31.239 289.442 C 32.250 290.810,32.324 290.845,32.061 289.838 C 31.951 289.418,31.528 288.896,31.121 288.678 C 30.450 288.319,30.461 288.390,31.239 289.442 M368.582 289.010 C 368.189 289.279,367.561 290.602,367.826 290.602 C 367.899 290.602,368.236 290.179,368.574 289.662 C 369.227 288.666,369.228 288.567,368.582 289.010 M35.534 295.450 C 36.292 296.505,36.989 297.368,37.083 297.368 C 37.342 297.368,35.012 294.060,34.554 293.777 C 34.335 293.641,34.776 294.394,35.534 295.450 M364.985 294.267 C 363.904 295.573,363.445 296.241,363.631 296.241 C 363.735 296.241,364.272 295.648,364.824 294.925 C 365.848 293.582,365.973 293.075,364.985 294.267 M41.935 303.572 C 42.906 304.709,43.767 305.639,43.848 305.639 C 44.158 305.639,41.142 301.923,40.667 301.719 C 40.393 301.602,40.964 302.436,41.935 303.572 M358.550 302.501 C 358.086 303.049,357.326 303.919,356.861 304.435 C 356.036 305.349,355.867 305.639,356.157 305.639 C 356.236 305.639,357.095 304.709,358.066 303.571 C 359.038 302.434,359.734 301.504,359.613 301.504 C 359.492 301.504,359.014 301.952,358.550 302.501 M354.676 307.237 L 353.571 308.459 354.793 307.354 C 355.465 306.747,356.015 306.197,356.015 306.133 C 356.015 305.842,355.705 306.098,354.676 307.237 M350.892 311.326 C 346.437 315.947,344.247 318.135,340.878 321.335 C 339.081 323.040,337.707 324.436,337.823 324.436 C 338.257 324.436,346.317 316.699,349.997 312.749 C 352.099 310.493,353.742 308.647,353.648 308.647 C 353.553 308.647,352.314 309.853,350.892 311.326 M47.340 309.913 C 48.358 311.018,48.558 311.126,48.289 310.424 C 48.188 310.161,47.728 309.716,47.267 309.435 C 46.467 308.947,46.471 308.970,47.340 309.913 M51.504 314.331 C 51.504 314.420,52.773 315.753,54.323 317.293 C 55.874 318.834,57.143 320.009,57.143 319.905 C 57.143 319.694,53.590 315.994,52.323 314.885 C 51.872 314.491,51.504 314.242,51.504 314.331 M60.338 322.932 C 61.146 323.759,61.891 324.436,61.995 324.436 C 62.098 324.436,61.522 323.759,60.714 322.932 C 59.907 322.105,59.161 321.429,59.058 321.429 C 58.955 321.429,59.531 322.105,60.338 322.932 M335.599 326.140 C 335.019 326.650,334.694 327.068,334.876 327.068 C 335.058 327.068,335.605 326.645,336.090 326.128 C 337.214 324.932,336.965 324.938,335.599 326.140 M66.353 328.195 C 66.728 328.609,67.098 328.947,67.177 328.947 C 67.255 328.947,67.139 328.609,66.917 328.195 C 66.696 327.782,66.325 327.444,66.094 327.444 C 65.862 327.444,65.979 327.782,66.353 328.195 M331.955 328.867 C 331.955 329.238,330.361 330.582,327.863 332.320 C 327.425 332.624,327.068 333.007,327.068 333.172 C 327.068 333.494,331.801 329.876,332.179 329.265 C 332.304 329.063,332.305 328.796,332.181 328.672 C 332.056 328.548,331.955 328.636,331.955 328.867 M321.004 337.332 C 320.253 337.763,319.447 338.423,319.213 338.798 C 318.966 339.193,319.579 338.911,320.672 338.126 C 321.708 337.381,322.556 336.703,322.556 336.619 C 322.556 336.430,322.641 336.391,321.004 337.332 M78.008 337.114 C 79.540 338.475,81.223 339.495,80.789 338.801 C 80.530 338.385,79.713 337.761,78.974 337.413 C 78.236 337.065,77.801 336.930,78.008 337.114 M114.286 358.083 C 114.803 358.378,115.395 358.620,115.602 358.620 C 115.808 358.620,115.555 358.378,115.038 358.083 C 114.521 357.787,113.929 357.545,113.722 357.545 C 113.515 357.545,113.769 357.787,114.286 358.083 M116.917 359.211 C 117.434 359.506,118.026 359.748,118.233 359.748 C 118.440 359.748,118.186 359.506,117.669 359.211 C 117.152 358.915,116.560 358.673,116.353 358.673 C 116.147 358.673,116.400 358.915,116.917 359.211 M145.520 368.932 C 145.606 369.006,146.184 369.181,146.805 369.319 C 147.628 369.504,147.780 369.469,147.368 369.190 C 146.861 368.847,145.143 368.607,145.520 368.932 M252.632 369.190 C 252.220 369.469,252.372 369.504,253.195 369.319 C 254.578 369.010,254.878 368.795,253.916 368.803 C 253.520 368.806,252.942 368.980,252.632 369.190 M154.135 371.053 C 154.652 371.218,155.414 371.354,155.827 371.354 C 156.422 371.354,156.383 371.291,155.639 371.053 C 155.122 370.887,154.361 370.752,153.947 370.752 C 153.352 370.752,153.391 370.814,154.135 371.053 M168.139 373.567 C 168.501 373.662,169.093 373.662,169.455 373.567 C 169.817 373.473,169.521 373.395,168.797 373.395 C 168.073 373.395,167.777 373.473,168.139 373.567 M230.545 373.567 C 230.907 373.662,231.499 373.662,231.861 373.567 C 232.223 373.473,231.927 373.395,231.203 373.395 C 230.479 373.395,230.183 373.473,230.545 373.567 M174.154 374.319 C 174.516 374.414,175.108 374.414,175.470 374.319 C 175.832 374.225,175.536 374.147,174.812 374.147 C 174.088 374.147,173.792 374.225,174.154 374.319 M177.730 374.702 C 178.198 374.792,178.874 374.788,179.234 374.694 C 179.593 374.600,179.211 374.527,178.383 374.531 C 177.556 374.535,177.262 374.612,177.730 374.702 M181.865 375.078 C 182.333 375.168,183.010 375.164,183.369 375.070 C 183.728 374.976,183.346 374.903,182.519 374.907 C 181.692 374.911,181.398 374.988,181.865 375.078 M216.828 375.078 C 217.295 375.168,217.972 375.164,218.331 375.070 C 218.691 374.976,218.308 374.903,217.481 374.907 C 216.654 374.911,216.360 374.988,216.828 375.078 M187.693 375.458 C 188.265 375.544,189.110 375.542,189.573 375.453 C 190.035 375.363,189.568 375.293,188.534 375.295 C 187.500 375.298,187.122 375.371,187.693 375.458 M210.808 375.453 C 211.273 375.543,212.035 375.543,212.500 375.453 C 212.965 375.364,212.585 375.290,211.654 375.290 C 210.724 375.290,210.343 375.364,210.808 375.453 " stroke="none" fill="#9ebe86" fill-rule="evenodd"></path></g></svg>