<svg viewBox="42.10526315789473 33.06666666666666 312.78195488721803 271.29696969696965" xmlns="http://www.w3.org/2000/svg" id="svg" style="max-height: 500px" width="312.78195488721803" height="271.29696969696965">
  <defs>
    
    <clipPath id="circleClip">
      <circle r="187.87878787878788" cy="187.87878787878788" cx="200"/>
    </clipPath>
    
    <style>
      .flat-green { fill: #93c36f; } /* tweak this hex if you want a different green */
    </style>
  </defs>

  <g shape-rendering="geometricPrecision" clip-path="url(#circleClip)" id="svgg">
    
    <path fill-rule="evenodd" fill="#fbfbfb" d="M0.052 88.252 C 0.082 140.204,0.236 174.957,0.425 172.744 C 8.268 81.020,84.092 8.728,181.015 0.566 C 185.737 0.169,171.479 0.084,93.327 0.046 L 0.000 0.000 0.052 88.252 M216.729 0.417 C 315.250 8.637,390.620 79.107,399.430 171.241 C 399.817 175.281,399.907 160.872,399.949 88.064 L 400.000 0.000 306.485 0.052 C 253.333 0.081,214.593 0.239,216.729 0.417 M249.404 90.714 C 242.132 93.497,238.251 101.076,240.369 108.360 C 240.704 109.512,240.977 110.548,240.977 110.664 C 240.977 110.878,238.132 113.369,224.248 125.309 C 219.906 129.044,215.440 132.923,214.323 133.931 C 213.206 134.938,211.740 136.184,211.064 136.700 L 209.835 137.637 208.019 136.720 C 197.970 131.642,184.643 140.414,186.709 150.746 C 186.875 151.572,186.747 151.904,186.137 152.231 C 185.405 152.622,172.291 158.109,163.062 161.885 L 159.018 163.539 156.987 161.885 C 153.523 159.063,148.687 157.764,144.771 158.604 C 127.801 162.244,130.065 187.343,147.368 187.396 C 155.908 187.422,162.027 181.244,162.031 172.592 L 162.033 169.737 163.629 169.092 C 164.507 168.737,170.626 166.241,177.227 163.546 C 191.128 157.871,189.520 158.247,191.621 160.184 C 202.257 169.987,219.048 159.369,215.227 145.255 C 214.850 143.863,214.707 142.675,214.895 142.504 C 215.077 142.339,219.539 138.513,224.812 134.002 C 233.725 126.377,242.077 119.136,244.413 117.009 L 245.404 116.106 247.796 117.357 C 254.513 120.873,264.042 117.843,267.426 111.115 C 273.357 99.324,261.622 86.040,249.404 90.714 M257.625 96.748 C 265.914 100.221,263.483 112.817,254.531 112.774 C 245.374 112.730,243.063 101.160,251.316 96.672 C 252.373 96.097,256.182 96.143,257.625 96.748 M237.970 178.571 L 237.970 225.188 255.263 225.188 L 272.556 225.188 272.556 178.571 L 272.556 131.955 255.263 131.955 L 237.970 131.955 237.970 178.571 M203.864 141.752 C 207.645 142.802,210.205 147.205,209.350 151.190 C 207.621 159.252,196.171 160.048,193.436 152.297 C 191.112 145.711,196.931 139.827,203.864 141.752 M150.670 165.246 C 156.208 167.559,157.524 174.768,153.184 179.012 C 147.161 184.900,136.795 178.163,139.634 170.206 C 141.248 165.684,146.292 163.417,150.670 165.246 M184.211 201.132 L 184.211 225.195 201.598 225.098 L 218.985 225.000 219.082 201.034 L 219.178 177.068 201.695 177.068 L 184.211 177.068 184.211 201.132 M91.831 184.475 C 90.822 184.670,88.479 187.309,88.292 188.461 C 88.218 188.915,88.242 210.210,88.346 235.784 L 88.534 282.282 89.644 283.440 C 91.294 285.163,92.936 285.444,100.283 285.265 C 107.348 285.093,107.764 284.972,109.563 282.562 C 110.335 281.528,110.339 281.323,110.438 235.214 L 110.538 188.904 109.686 187.215 C 108.296 184.458,107.410 184.203,99.436 184.262 C 95.714 184.290,92.292 184.386,91.831 184.475 M293.543 185.140 C 290.789 187.012,290.945 183.861,291.061 235.405 C 291.165 281.318,291.169 281.529,291.941 282.562 C 293.753 284.990,294.138 285.099,301.412 285.259 C 309.166 285.429,310.400 285.165,312.182 282.954 L 313.346 281.509 313.235 234.663 C 313.110 182.023,313.352 186.230,310.370 184.814 C 308.015 183.697,295.305 183.943,293.543 185.140 M399.469 202.726 C 394.214 279.790,336.262 347.056,256.391 368.800 C 244.053 372.159,231.762 374.203,215.977 375.522 C 213.837 375.701,252.654 375.859,306.109 375.888 L 400.000 375.940 400.000 287.406 C 400.000 238.712,399.940 198.872,399.866 198.872 C 399.792 198.872,399.613 200.606,399.469 202.726 M0.063 287.876 L 0.000 375.940 94.079 375.895 C 175.478 375.856,187.347 375.782,182.143 375.348 C 135.279 371.442,94.696 354.156,60.714 323.628 C 25.031 291.571,4.502 250.038,0.257 201.316 C 0.185 200.489,0.098 239.441,0.063 287.876 M130.451 212.782 L 130.451 225.195 147.838 225.098 L 165.226 225.000 165.226 212.782 L 165.226 200.564 147.838 200.466 L 130.451 200.368 130.451 212.782 M322.778 204.011 C 318.627 204.717,318.797 203.404,318.798 234.850 C 318.800 268.557,318.020 265.791,327.519 265.788 C 332.941 265.787,334.208 265.411,335.515 263.415 C 336.455 261.981,336.522 207.670,335.586 206.241 C 334.236 204.181,328.081 203.109,322.778 204.011 M66.680 205.478 C 65.712 206.504,65.414 207.146,65.418 208.203 C 65.420 208.964,65.378 221.458,65.324 235.968 C 65.226 262.136,65.232 262.358,66.004 263.412 C 68.551 266.885,79.568 266.886,82.116 263.412 C 82.966 262.254,83.526 224.984,82.889 212.043 L 82.621 206.605 81.385 205.370 L 80.150 204.135 74.048 204.135 L 67.946 204.135 66.680 205.478 M54.323 230.125 C 49.611 232.474,51.830 239.474,57.287 239.474 L 59.774 239.474 59.774 234.586 L 59.774 229.699 57.425 229.725 C 56.133 229.739,54.737 229.919,54.323 230.125 M341.729 234.586 L 341.729 239.474 344.267 239.462 C 347.876 239.445,349.619 237.857,349.619 234.586 C 349.619 231.332,347.802 229.734,344.079 229.713 L 341.729 229.699 341.729 234.586 M115.789 234.962 L 115.789 239.474 200.752 239.474 L 285.714 239.474 L 285.714 234.962 L 285.714 230.451 L 200.752 230.451 L 115.789 230.451 L 115.789 234.962 M130.451 265.414 L 130.451 286.090 147.932 286.090 L 165.414 286.090 165.414 265.414 L 165.414 244.737 147.932 244.737 L 130.451 244.737 130.451 265.414 M184.211 265.414 L 184.211 286.090 201.692 286.090 L 219.173 286.090 219.173 265.414 L 219.173 244.737 201.692 244.737 L 184.211 244.737 184.211 265.414 M237.970 265.414 L 237.970 286.090 255.263 286.090 L 272.556 286.090 272.556 265.414 L 272.556 244.737 255.263 244.737 L 237.970 244.737 237.970 265.414" id="path0"/>

    
    <path d="M186.278 0.602 C 172.690 1.545,161.779 3.178,150.940 5.892 ... 272.909 244.693 C 273.310 245.443,273.306 285.842,272.904 286.244 C 272.525 286.622,237.928 286.574,237.548 286.194 C 237.017 285.664,237.113 245.129,237.646 244.486 C 238.407 243.569,272.414 243.768,272.909 244.693" class="flat-green" id="path1"/>
    <path d="M189.944 0.259 C 190.305 0.354,190.898 0.354,191.259 0.259 ... 207.237 375.823 C 207.599 375.918,208.191 375.918,208.553 375.823 C 208.914 375.728,208.618 375.651,207.895 375.651 C 207.171 375.651,206.875 375.728,207.237 375.823" class="flat-green" id="path2"/>
    <path d="M187.124 0.265 C 187.589 0.355,188.351 0.355,188.816 0.265 ... 209.874 375.834 C 210.445 375.920,211.291 375.918,211.753 375.829 C 212.216 375.739,211.748 375.669,210.714 375.671 C 209.680 375.674,209.302 375.747,209.874 375.834" class="flat-green" id="path3"/>
    <path d="M185.620 0.641 C 186.086 0.731,186.847 0.731,187.312 0.641 ... 210.808 375.453 C 211.273 375.543,212.035 375.543,212.500 375.453 C 212.965 375.364,212.585 375.290,211.654 375.290 C 210.724 375.290,210.343 375.364,210.808 375.453" class="flat-green" id="path4"/>
  </g>
</svg>